<svg version="1.1" viewBox="0.0 0.0 480.0 480.0" fill="none" stroke="none" stroke-linecap="square" stroke-miterlimit="10" xmlns:xlink="http://www.w3.org/1999/xlink" xmlns="http://www.w3.org/2000/svg"><clipPath id="p.0"><path d="m0 0l480.0 0l0 480.0l-480.0 0l0 -480.0z" clip-rule="nonzero"/></clipPath><g clip-path="url(#p.0)"><path fill="#ffffff" fill-opacity="0.0" d="m0 0l480.0 0l0 480.0l-480.0 0z" fill-rule="evenodd"/><path fill="#402f5e" d="m13.511811 240.0l0 0c0 -128.3736 101.402214 -232.44095 226.48819 -232.44095l0 0c60.06839 0 117.676575 24.489244 160.15134 68.080376c42.474762 43.591133 66.33685 102.7134 66.33685 164.36057l0 0c0 128.3736 -101.40222 232.44095 -226.48819 232.44095l0 0c-125.085976 0 -226.48819 -104.06735 -226.48819 -232.44095z" fill-rule="evenodd"/><path stroke="#595959" stroke-width="1.0" stroke-linejoin="round" stroke-linecap="butt" d="m13.511811 240.0l0 0c0 -128.3736 101.402214 -232.44095 226.48819 -232.44095l0 0c60.06839 0 117.676575 24.489244 160.15134 68.080376c42.474762 43.591133 66.33685 102.7134 66.33685 164.36057l0 0c0 128.3736 -101.40222 232.44095 -226.48819 232.44095l0 0c-125.085976 0 -226.48819 -104.06735 -226.48819 -232.44095z" fill-rule="evenodd"/></g></svg>