<svg xmlns="http://www.w3.org/2000/svg" height="1296" width="1546" version="1.1" xmlns:xlink="http://www.w3.org/1999/xlink" xmlns:svgjs="http://svgjs.com/svgjs"><rect fill="#ffffff" width="1546" height="1296"></rect><g><path d="M1378.95 1005.62L1328.85 999.83 1336.15 956.53C1336.35 955.53 1335.75 954.63 1334.85 954.33 1333.95 954.03 1332.95 954.43 1332.45 955.23L1312.45 990.83 1279.15 954.73C1278.45 954.03 1277.35 953.83 1276.55 954.43 1275.75 955.03 1275.45 956.03 1275.85 956.93L1296.75 1000.72 1261.25 1008.72C1260.35 1008.92 1259.65 1009.72 1259.65 1010.72 1259.65 1011.72 1260.35 1012.52 1261.25 1012.62L1297.35 1019.12 1282.85 1073.92C1282.55 1074.92 1283.05 1075.92 1284.05 1076.32 1284.25 1076.42 1284.55 1076.52 1284.85 1076.52 1285.55 1076.52 1286.25 1076.12 1286.55 1075.52L1313.85 1028.42 1338.35 1055.02C1338.95 1055.72 1340.05 1055.92 1340.85 1055.42 1341.65 1054.92 1342.05 1053.92 1341.65 1053.02L1329.35 1018.62 1378.95 1009.52C1379.95 1009.32 1380.65 1008.52 1380.55 1007.52 1380.45 1006.52 1379.95 1005.72 1378.95 1005.62Z" fill="#a99ea7" opacity="1" stroke-width="4" stroke="none"></path></g><g><path d="M1121.5 230.2C1129.4 230.2 1135.8 223.8 1135.8 215.9 1135.8 208 1129.4 201.6 1121.5 201.6 1113.6 201.6 1107.2 208 1107.2 215.9 1107.2 223.8 1113.6 230.2 1121.5 230.2Z" fill="#ffffff" opacity="1" stroke-width="4" stroke="none"></path></g><g><path d="M1173.35 800.8C1203.05 822.3 1270.05 797 1311.45 772.2 1357.45 744.6 1359.55 714.9 1341.15 714.9 1315.55 714.9 1252.15 793.7 1288.95 811 1319.35 825.4 1374.85 799.8 1389.15 816.1 1403.45 832.4 1409.65 868.3 1449.45 886.7" stroke="#ffffff" stroke-width="4" stroke-linecap="round" stroke-linejoin="round" opacity="1" fill="none"></path></g><g><path d="M303.3 1036.3C312.36 1036.3 319.7 1028.96 319.7 1019.9 319.7 1010.84 312.36 1003.5 303.3 1003.5 294.24 1003.5 286.9 1010.84 286.9 1019.9 286.9 1028.96 294.24 1036.3 303.3 1036.3Z" fill="#d1c8df" opacity="1" stroke-width="4" stroke="none"></path></g><g><path d="M1150.04 1082.4V1089.48" stroke="#a45c8c" stroke-width="4" stroke-linecap="round" stroke-linejoin="round" opacity="1" fill="none"></path><path d="M1150.04 1109.59V1116.68" stroke="#a45c8c" stroke-width="4" stroke-linecap="round" stroke-linejoin="round" opacity="1" fill="none"></path><path d="M1167.18 1099.54H1160.09" stroke="#a45c8c" stroke-width="4" stroke-linecap="round" stroke-linejoin="round" opacity="1" fill="none"></path><path d="M1139.98 1099.54H1132.9" stroke="#a45c8c" stroke-width="4" stroke-linecap="round" stroke-linejoin="round" opacity="1" fill="none"></path><path d="M1137.93 1087.43L1142.92 1092.42" stroke="#a45c8c" stroke-width="4" stroke-linecap="round" stroke-linejoin="round" opacity="1" fill="none"></path><path d="M1157.16 1106.66L1162.15 1111.65" stroke="#a45c8c" stroke-width="4" stroke-linecap="round" stroke-linejoin="round" opacity="1" fill="none"></path><path d="M1162.15 1087.43L1157.16 1092.42" stroke="#a45c8c" stroke-width="4" stroke-linecap="round" stroke-linejoin="round" opacity="1" fill="none"></path><path d="M1142.92 1106.66L1137.93 1111.65" stroke="#a45c8c" stroke-width="4" stroke-linecap="round" stroke-linejoin="round" opacity="1" fill="none"></path></g><g><path d="M162.26 513.5C172.7 513.5 181.16 505.04 181.16 494.6 181.16 484.16 172.7 475.7 162.26 475.7 151.82 475.7 143.36 484.16 143.36 494.6 143.36 505.04 151.82 513.5 162.26 513.5Z" fill="#a45c8c" opacity="1" stroke-width="4" stroke="none"></path></g><g><path d="M248.1 642.93C259.07 635.02 261.56 619.71 253.65 608.74 245.73 597.76 230.42 595.27 219.45 603.19 208.47 611.1 205.99 626.41 213.9 637.39 221.81 648.36 237.12 650.85 248.1 642.93Z" fill="#ffffff" opacity="1" stroke-width="4" stroke="none"></path></g><g><path d="M105.05 854.4C144.55 819.6 217.75 772.6 279.05 812.5 279.05 812.5 218.75 733.7 249.45 696.9 289.55 648.7 407.55 779.7 389.85 802.2 371.65 825.2 330.95 722.3 352.25 665.1 369.05 620.1 449.25 687.6 462.15 727.5" stroke="#ffffff" stroke-width="4" stroke-linecap="round" stroke-linejoin="round" opacity="1" fill="none"></path></g><g><path d="M1182.78 322.8H1098.88C1098.88 322.8 1089.18 372.4 1118.38 398.7H1202.28C1173.08 372.4 1182.78 322.8 1182.78 322.8Z" fill="#ffffff" opacity="1" stroke-width="4" stroke="none"></path><path d="M1065.18 279.9H981.28C981.28 279.9 971.58 329.5 1000.78 355.8H1084.68C1055.38 329.5 1065.18 279.9 1065.18 279.9Z" fill="#402f5e" opacity="1" stroke-width="4" stroke="none"></path></g><g><path d="M903.83 171.85L886.63 199.38 915.91 180.35 926.43 202.24 926.6 175.2 958.65 165.47 926.57 162.52 942.62 132.78 916.16 157.73 903.78 130.36 906.29 161.87 876.85 157.73 903.83 171.85Z" stroke="#a99ea7" stroke-width="4" stroke-linecap="round" stroke-linejoin="round" opacity="1" fill="none"></path></g><g><path d="M983.23 523.65C985.97 525.23 988.29 527.44 990.03 530.08 991.77 532.72 992.86 535.73 993.23 538.87 993.46 541.13 994.44 543.25 996 544.89 997.56 546.54 999.63 547.62 1001.87 547.97L1002.21 548.08C1004.44 548.36 1006.71 547.87 1008.63 546.7 1010.55 545.52 1012.01 543.72 1012.78 541.6 1013.77 539.04 1015.24 536.69 1017.1 534.67 1019.6 532.03 1022.77 530.13 1026.28 529.17 1029.78 528.21 1033.49 528.22 1036.98 529.22 1039.62 530 1042.08 531.27 1044.25 532.97 1046.02 534.4 1048.23 535.18 1050.5 535.18 1052.78 535.18 1054.99 534.4 1056.76 532.97L1056.98 532.85C1058.8 531.45 1060.09 529.47 1060.64 527.25 1061.2 525.02 1060.99 522.67 1060.05 520.58 1057.91 515.69 1057.78 510.16 1059.7 505.18 1061.61 500.2 1065.42 496.18 1070.28 493.99 1072.12 493.17 1074.07 492.63 1076.07 492.4 1078.33 492.17 1080.45 491.19 1082.09 489.63 1083.74 488.07 1084.82 486 1085.16 483.76L1085.28 483.42C1085.56 481.18 1085.07 478.92 1083.9 477 1082.72 475.08 1080.92 473.61 1078.8 472.85 1076.24 471.85 1073.89 470.39 1071.87 468.53 1069.23 466.03 1067.33 462.85 1066.37 459.35 1065.41 455.84 1065.42 452.14 1066.41 448.65 1067.2 446.01 1068.47 443.54 1070.16 441.37 1071.55 439.58 1072.3 437.38 1072.3 435.12 1072.3 432.86 1071.55 430.66 1070.16 428.87 1070.1 428.81 1070.06 428.73 1070.05 428.65 1068.65 426.83 1066.67 425.54 1064.45 424.98 1062.22 424.43 1059.87 424.64 1057.78 425.58 1052.89 427.74 1047.35 427.88 1042.36 425.97 1037.38 424.05 1033.36 420.23 1031.19 415.35 1030.34 413.51 1029.77 411.56 1029.48 409.55 1029.25 407.3 1028.28 405.18 1026.71 403.53 1025.15 401.89 1023.09 400.81 1020.85 400.46L1020.5 400.35C1018.27 400.07 1016 400.55 1014.08 401.73 1012.16 402.91 1010.7 404.71 1009.94 406.83 1008.94 409.38 1007.47 411.74 1005.62 413.76 1003.12 416.39 999.94 418.3 996.43 419.26 992.93 420.22 989.23 420.2 985.73 419.21 983.09 418.43 980.63 417.15 978.46 415.46 976.69 414.03 974.48 413.25 972.21 413.25 969.93 413.25 967.72 414.03 965.96 415.46L965.73 415.58C963.94 416.97 962.67 418.93 962.13 421.14 961.6 423.35 961.82 425.67 962.78 427.74 964.94 432.62 965.08 438.16 963.16 443.15 961.25 448.13 957.43 452.15 952.55 454.33 950.71 455.17 948.76 455.74 946.75 456.03 944.5 456.26 942.38 457.24 940.73 458.8 939.09 460.36 938.01 462.43 937.66 464.67L937.55 465.01C937.26 467.24 937.75 469.51 938.93 471.43 940.11 473.35 941.9 474.82 944.03 475.58 946.58 476.58 948.93 478.04 950.96 479.9 953.64 482.39 955.58 485.58 956.56 489.11 957.54 492.64 957.53 496.37 956.53 499.9 955.74 502.53 954.47 505 952.78 507.17 951.34 508.94 950.56 511.14 950.56 513.42 950.56 515.7 951.34 517.9 952.78 519.67L952.89 519.9C954.29 521.69 956.24 522.96 958.44 523.52 960.65 524.07 962.97 523.88 965.05 522.97 967.91 521.59 971.06 520.93 974.22 521.05 977.39 521.17 980.49 522.06 983.23 523.65V523.65ZM990.28 470.24C994.03 452.4 1015.39 446.6 1027.78 459.9 1029.96 462.31 1031.54 465.2 1032.41 468.34 1033.28 471.48 1033.4 474.77 1032.78 477.96 1032.02 481.94 1030.16 485.63 1027.42 488.6 1024.67 491.58 1021.15 493.73 1017.25 494.81 1013.34 495.88 1009.21 495.84 1005.33 494.69 1001.45 493.55 997.97 491.33 995.28 488.31 993.03 485.93 991.4 483.04 990.53 479.89 989.65 476.74 989.57 473.43 990.28 470.24V470.24Z" fill="#a45c8c" opacity="1" stroke-width="4" stroke="none"></path></g><g><path d="M486.12 1041.3V1031.94C486.12 1024.49 492.1 1018.52 499.54 1018.52 506.99 1018.52 512.97 1024.49 512.97 1031.94V1041.3C512.97 1048.74 506.99 1054.72 499.54 1054.72 492.1 1054.83 486.12 1048.74 486.12 1041.3Z" fill="#000000" opacity="1" stroke-width="4" stroke="none"></path><path d="M643.45 1041.3V1031.94C643.45 1024.49 649.43 1018.52 656.87 1018.52 664.31 1018.52 670.29 1024.49 670.29 1031.94V1041.3C670.29 1048.74 664.31 1054.72 656.87 1054.72 649.54 1054.83 643.45 1048.74 643.45 1041.3Z" fill="#000000" opacity="1" stroke-width="4" stroke="none"></path><path d="M484.88 757.1H670.63C696 757.1 716.53 777.63 716.53 803V988.74C716.53 1014.12 696 1034.64 670.63 1034.64H484.88C459.51 1034.64 438.98 1014.12 438.98 988.74V803C438.98 777.63 459.51 757.1 484.88 757.1Z" fill="#a45c8c" opacity="1" stroke-width="4" stroke="none"></path><path d="M577.7 963.37C607.47 963.37 631.61 939.23 631.61 909.46 631.61 879.69 607.47 855.55 577.7 855.55 547.93 855.55 523.79 879.69 523.79 909.46 523.79 939.23 547.93 963.37 577.7 963.37Z" fill="#000000" opacity="0.2" stroke-width="4" stroke="none"></path><path d="M492.89 803.68H662.39C666.45 803.68 669.73 806.95 669.73 811.01V980.51C669.73 984.57 666.45 987.84 662.39 987.84H492.89C488.83 987.84 485.56 984.57 485.56 980.51V811.01C485.56 806.95 488.83 803.68 492.89 803.68Z" stroke="#000000" stroke-width="4" opacity="1" fill="none"></path><path d="M577.7 949.72C607.47 949.72 631.61 925.59 631.61 895.82 631.61 866.04 607.47 841.91 577.7 841.91 547.93 841.91 523.79 866.04 523.79 895.82 523.79 925.59 547.93 949.72 577.7 949.72Z" fill="#c597b6" opacity="1" stroke-width="4" stroke="none"></path><path d="M577.7 914.2C587.85 914.2 596.08 905.97 596.08 895.82 596.08 885.67 587.85 877.43 577.7 877.43 567.55 877.43 559.32 885.67 559.32 895.82 559.32 905.97 567.55 914.2 577.7 914.2Z" fill="#000000" opacity="1" stroke-width="4" stroke="none"></path><path d="M480.94 838.3H490.3C497.74 838.3 503.72 844.28 503.72 851.72 503.72 859.16 497.74 865.14 490.3 865.14H480.94C473.49 865.14 467.52 859.16 467.52 851.72 467.4 844.39 473.49 838.3 480.94 838.3Z" fill="#000000" opacity="1" stroke-width="4" stroke="none"></path><path d="M480.94 926.38H490.3C497.74 926.38 503.72 932.36 503.72 939.8 503.72 947.24 497.74 953.22 490.3 953.22H480.94C473.49 953.22 467.52 947.24 467.52 939.8 467.4 932.36 473.49 926.38 480.94 926.38Z" fill="#000000" opacity="1" stroke-width="4" stroke="none"></path></g><g><path d="M330.72 602.43C321.84 602.41 313.33 598.88 307.05 592.6 300.77 586.32 297.23 577.81 297.23 568.93V251.47C297.23 242.59 300.77 234.08 307.05 227.8 313.33 221.52 321.84 217.98 330.72 217.97H742.6C751.48 217.98 759.99 221.52 766.27 227.8 772.55 234.08 776.08 242.59 776.09 251.47V568.93C776.08 577.81 772.55 586.32 766.27 592.6 759.99 598.88 751.48 602.41 742.6 602.43H330.72Z" fill="#ffffff" opacity="1" stroke-width="4" stroke="none"></path><path d="M297.25 289.93H777.57" stroke="#ffffff" stroke-width="4" opacity="1" fill="none"></path><path d="M332.47 265.95C339.5 265.95 345.21 260.25 345.21 253.22 345.21 246.18 339.5 240.48 332.47 240.48 325.43 240.48 319.73 246.18 319.73 253.22 319.73 260.25 325.43 265.95 332.47 265.95Z" fill="#ffffff" opacity="1" stroke-width="4" stroke="none"></path><path d="M371.07 265.95C378.11 265.95 383.81 260.25 383.81 253.22 383.81 246.18 378.11 240.48 371.07 240.48 364.04 240.48 358.33 246.18 358.33 253.22 358.33 260.25 364.04 265.95 371.07 265.95Z" fill="#ffffff" opacity="1" stroke-width="4" stroke="none"></path><path d="M409.67 265.95C416.71 265.95 422.41 260.25 422.41 253.22 422.41 246.18 416.71 240.48 409.67 240.48 402.64 240.48 396.93 246.18 396.93 253.22 396.93 260.25 402.64 265.95 409.67 265.95Z" fill="#ffffff" opacity="1" stroke-width="4" stroke="none"></path></g><g><path d="M588.94 321.09V455.51" stroke="#000000" stroke-width="4" stroke-linecap="round" stroke-linejoin="round" opacity="1" fill="none"></path><path d="M577.25 412.7V363.9C577.24 362.44 577.53 360.99 578.09 359.63 578.65 358.28 579.47 357.05 580.5 356.02 581.54 354.98 582.77 354.16 584.12 353.6 585.47 353.04 586.92 352.76 588.39 352.76 589.85 352.76 591.3 353.04 592.65 353.6 594.01 354.16 595.24 354.98 596.27 356.02 597.31 357.05 598.13 358.28 598.69 359.63 599.24 360.99 599.53 362.44 599.53 363.9V412.7C599.53 414.16 599.24 415.61 598.69 416.97 598.13 418.32 597.31 419.55 596.27 420.58 595.24 421.62 594.01 422.44 592.65 423 591.3 423.56 589.85 423.84 588.39 423.84V423.84C585.44 423.83 582.61 422.65 580.52 420.57 578.43 418.48 577.26 415.65 577.25 412.7V412.7Z" fill="#a45c8c" opacity="1" stroke-width="4" stroke="none"></path><path d="M501.56 383.33V515.27" stroke="#000000" stroke-width="4" stroke-linecap="round" stroke-linejoin="round" opacity="1" fill="none"></path><path d="M490.42 473.75V424.95C490.42 423.48 490.7 422.03 491.26 420.68 491.82 419.33 492.64 418.1 493.68 417.06 494.71 416.03 495.94 415.21 497.29 414.65 498.65 414.09 500.1 413.8 501.56 413.8 503.02 413.8 504.48 414.09 505.83 414.65 507.18 415.21 508.41 416.03 509.45 417.06 510.48 418.1 511.3 419.33 511.86 420.68 512.42 422.03 512.7 423.48 512.7 424.95V473.75C512.7 475.21 512.42 476.66 511.86 478.01 511.3 479.36 510.48 480.59 509.45 481.63 508.41 482.66 507.18 483.49 505.83 484.04 504.48 484.6 503.02 484.89 501.56 484.89 498.61 484.86 495.8 483.68 493.71 481.59 491.63 479.51 490.45 476.69 490.42 473.75V473.75Z" fill="#ffffff" opacity="1" stroke-width="4" stroke="none"></path><path d="M414.64 367.12V498.97" stroke="#000000" stroke-width="4" stroke-linecap="round" stroke-linejoin="round" opacity="1" fill="none"></path><path d="M403.5 457.45V408.65C403.5 407.18 403.78 405.73 404.34 404.38 404.9 403.03 405.72 401.8 406.76 400.76 407.79 399.73 409.02 398.91 410.38 398.35 411.73 397.79 413.18 397.5 414.64 397.51V397.51C416.11 397.5 417.56 397.79 418.91 398.35 420.26 398.91 421.49 399.73 422.53 400.76 423.56 401.8 424.38 403.03 424.94 404.38 425.5 405.74 425.79 407.18 425.78 408.65V457.45C425.79 458.91 425.5 460.36 424.94 461.71 424.38 463.07 423.56 464.3 422.53 465.33 421.49 466.37 420.26 467.19 418.91 467.75 417.56 468.31 416.11 468.59 414.64 468.59V468.59C413.18 468.59 411.73 468.31 410.38 467.75 409.02 467.19 407.79 466.37 406.76 465.33 405.72 464.3 404.9 463.07 404.34 461.71 403.78 460.36 403.5 458.91 403.5 457.45V457.45Z" fill="#d1c8df" opacity="1" stroke-width="4" stroke="none"></path><path d="M458.1 337.38V567.66" stroke="#000000" stroke-width="4" stroke-linecap="round" stroke-linejoin="round" opacity="1" fill="none"></path><path d="M446.96 525.68V379.28C446.96 377.81 447.24 376.36 447.8 375.01 448.36 373.66 449.18 372.43 450.22 371.39 451.25 370.36 452.48 369.54 453.83 368.98 455.19 368.42 456.64 368.13 458.1 368.14V368.14C459.56 368.13 461.01 368.42 462.37 368.98 463.72 369.54 464.95 370.36 465.98 371.39 467.02 372.43 467.84 373.66 468.4 375.01 468.96 376.36 469.24 377.81 469.24 379.28V525.68C469.24 527.14 468.96 528.59 468.4 529.94 467.84 531.29 467.02 532.52 465.98 533.56 464.95 534.59 463.72 535.42 462.37 535.97 461.01 536.53 459.56 536.82 458.1 536.82 456.64 536.82 455.19 536.53 453.83 535.97 452.48 535.42 451.25 534.59 450.22 533.56 449.18 532.52 448.36 531.29 447.8 529.94 447.24 528.59 446.96 527.14 446.96 525.68V525.68Z" fill="#a45c8c" opacity="1" stroke-width="4" stroke="none"></path><path d="M675.31 424.85V537.92" stroke="#000000" stroke-width="4" stroke-linecap="round" stroke-linejoin="round" opacity="1" fill="none"></path><path d="M664.17 494.65V468.13C664.16 466.66 664.45 465.21 665.01 463.86 665.57 462.51 666.39 461.28 667.42 460.25 668.46 459.21 669.69 458.39 671.04 457.83 672.39 457.27 673.84 456.98 675.31 456.99V456.99C676.77 456.98 678.22 457.27 679.57 457.83 680.93 458.39 682.15 459.21 683.19 460.25 684.22 461.28 685.05 462.51 685.6 463.86 686.16 465.21 686.45 466.66 686.45 468.13V494.65C686.45 496.11 686.16 497.56 685.6 498.91 685.05 500.27 684.22 501.49 683.19 502.53 682.15 503.57 680.93 504.39 679.57 504.94 678.22 505.5 676.77 505.79 675.31 505.79V505.79C673.84 505.79 672.39 505.5 671.04 504.94 669.69 504.39 668.46 503.57 667.42 502.53 666.39 501.49 665.57 500.27 665.01 498.91 664.45 497.56 664.16 496.11 664.17 494.65V494.65Z" fill="#a99ea7" opacity="1" stroke-width="4" stroke="none"></path><path d="M631.75 352.57V515.27" stroke="#000000" stroke-width="4" stroke-linecap="round" stroke-linejoin="round" opacity="1" fill="none"></path><path d="M620.71 472.82V394.93C620.7 393.47 620.99 392.02 621.55 390.66 622.11 389.31 622.93 388.08 623.96 387.05 625 386.01 626.23 385.19 627.58 384.63 628.93 384.07 630.38 383.79 631.85 383.79V383.79C633.31 383.79 634.76 384.07 636.11 384.63 637.47 385.19 638.7 386.01 639.73 387.05 640.77 388.08 641.59 389.31 642.15 390.66 642.7 392.02 642.99 393.47 642.99 394.93V472.82C642.99 474.29 642.7 475.74 642.15 477.09 641.59 478.44 640.77 479.67 639.73 480.71 638.7 481.74 637.47 482.56 636.11 483.12 634.76 483.68 633.31 483.97 631.85 483.97 628.9 483.96 626.07 482.78 623.98 480.69 621.89 478.6 620.72 475.78 620.71 472.82V472.82Z" fill="#ffffff" opacity="1" stroke-width="4" stroke="none"></path><path d="M545.02 354.88V546.67" stroke="#000000" stroke-width="4" stroke-linecap="round" stroke-linejoin="round" opacity="1" fill="none"></path><path d="M533.79 499.62V402.02C533.78 400.55 534.07 399.1 534.63 397.75 535.19 396.4 536.01 395.17 537.04 394.14 538.08 393.1 539.31 392.28 540.66 391.72 542.01 391.16 543.46 390.88 544.93 390.88 546.39 390.88 547.84 391.16 549.19 391.72 550.55 392.28 551.78 393.1 552.81 394.14 553.85 395.17 554.67 396.4 555.23 397.75 555.79 399.1 556.07 400.55 556.07 402.02V499.62C556.07 501.08 555.79 502.53 555.23 503.89 554.67 505.24 553.85 506.47 552.81 507.5 551.78 508.54 550.55 509.36 549.19 509.92 547.84 510.48 546.39 510.76 544.93 510.76V510.76C541.98 510.75 539.15 509.57 537.06 507.49 534.97 505.4 533.8 502.57 533.79 499.62V499.62Z" fill="#a45c8c" opacity="1" stroke-width="4" stroke="none"></path></g><g><path d="M271.63 448.99C264.21 448.99 221.6 433.8 221.6 393.89V340.09C221.61 340.08 221.62 340.08 221.63 340.08 221.82 340.08 222.88 340.16 224.61 340.16 233.03 340.16 254.46 338.37 271.62 321.71 288.8 338.37 310.24 340.16 318.65 340.16 320.54 340.16 321.63 340.07 321.64 340.07L321.66 393.89C321.66 433.8 279.05 448.99 271.63 448.99Z" fill="#000000" opacity="0.2" stroke-width="4" stroke="none"></path><path d="M263.09 441.2C255.66 441.2 213.06 426.01 213.06 386.11V332.3C213.07 332.3 213.08 332.3 213.09 332.3 213.27 332.3 214.34 332.38 216.07 332.38 224.48 332.38 245.92 330.58 263.07 313.93 280.26 330.58 301.69 332.38 310.11 332.38 311.99 332.38 313.08 332.28 313.1 332.28L313.12 386.11C313.12 426.01 270.51 441.2 263.09 441.2Z" fill="#402f5e" opacity="1" stroke-width="4" stroke="none"></path><path d="M263.09 403.66C277.5 403.66 289.19 391.98 289.19 377.56 289.19 363.15 277.5 351.46 263.09 351.46 248.67 351.46 236.99 363.15 236.99 377.56 236.99 391.98 248.67 403.66 263.09 403.66Z" fill="#402f5e" opacity="1" stroke-width="4" stroke="none"></path><path d="M254.54 376.61L261.5 383.58 271.63 371.55" stroke="#000000" stroke-width="4" stroke-linecap="round" stroke-linejoin="round" opacity="1" fill="none"></path></g><g><path d="M1008.96 664.86H1224.58C1234.76 664.87 1244.52 668.91 1251.72 676.11 1258.92 683.31 1262.96 693.07 1262.97 703.25V726.85C1262.96 737.03 1258.92 746.8 1251.72 753.99 1244.52 761.19 1234.76 765.24 1224.58 765.24H1008.96C998.78 765.24 989.02 761.19 981.82 753.99 974.62 746.8 970.58 737.03 970.57 726.85V703.25C970.58 693.07 974.62 683.31 981.82 676.11 989.02 668.91 998.78 664.87 1008.96 664.86V664.86Z" fill="#ffffff" opacity="1" stroke-width="4" stroke="none"></path><path d="M1024.3 734.58C1035.13 734.58 1043.91 725.8 1043.91 714.96 1043.91 704.13 1035.13 695.34 1024.3 695.34 1013.46 695.34 1004.68 704.13 1004.68 714.96 1004.68 725.8 1013.46 734.58 1024.3 734.58Z" stroke="#ffffff" stroke-width="4" stroke-linecap="round" stroke-linejoin="round" opacity="1" fill="none"></path><path d="M1038.18 728.85L1044.15 734.82" stroke="#ffffff" stroke-width="4" stroke-linecap="round" stroke-linejoin="round" opacity="1" fill="none"></path><path d="M1068.66 731.98H1223.19" stroke="#ffffff" stroke-width="4" stroke-linecap="round" stroke-linejoin="round" opacity="1" fill="none"></path></g><g><path d="M1309.2 868.6C1315.55 868.6 1320.7 863.45 1320.7 857.1 1320.7 850.75 1315.55 845.6 1309.2 845.6 1302.85 845.6 1297.7 850.75 1297.7 857.1 1297.7 863.45 1302.85 868.6 1309.2 868.6Z" fill="#d1c8df" opacity="1" stroke-width="4" stroke="none"></path></g><g><path d="M1187.39 465.46L1145.01 533.76C1138.94 543.53 1137.21 555.37 1140.17 566.48L1160.2 641.43C1166.18 663.84 1189.22 677.21 1211.67 671.19L1307.7 645.58C1330.15 639.61 1343.48 616.56 1337.51 594.11L1317.47 519.15C1314.51 508.05 1307.06 498.62 1296.94 493.2L1226.18 455.1C1212.51 447.8 1195.54 452.29 1187.39 465.46Z" fill="#ffffff" opacity="1" stroke-width="4" stroke="none"></path><path d="M1208.22 465.71C1212.07 464.67 1216.16 465.17 1219.72 467.04L1290.48 505.14C1297.29 508.84 1302.27 515.16 1304.3 522.66L1324.33 597.66C1328.38 612.86 1319.35 628.4 1304.2 632.5L1208.12 658.06C1192.92 662.11 1177.38 653.08 1173.28 637.93L1153.3 562.97C1151.32 555.47 1152.51 547.53 1156.55 540.91L1198.89 472.62C1201.01 469.21 1204.32 466.75 1208.22 465.71ZM1204.71 452.58C1197.51 454.51 1191.34 459.1 1187.39 465.46L1145.01 533.76C1138.94 543.53 1137.21 555.37 1140.17 566.48L1160.2 641.43C1166.18 663.84 1189.22 677.21 1211.67 671.19L1307.7 645.58C1330.15 639.61 1343.48 616.56 1337.51 594.11L1317.47 519.15C1314.51 508.05 1307.06 498.62 1296.94 493.2L1226.18 455.1C1219.57 451.55 1211.92 450.66 1204.71 452.58Z" fill="#a45c8c" opacity="1" stroke-width="4" stroke="none"></path><path d="M1270.17 530.5L1170.38 557.13 1195.77 652.29 1295.56 625.67 1270.17 530.5Z" fill="#616161" opacity="0.2" stroke-width="4" stroke="none"></path><path d="M1276.33 520.48L1176.54 547.11 1201.93 642.27 1301.73 615.65 1276.33 520.48Z" fill="#dddddd" opacity="1" stroke-width="4" stroke="none"></path><path d="M1243.35 597.42L1139.63 564.5 1160.15 641.38C1166.13 663.79 1189.17 677.16 1211.62 671.14L1307.6 645.53C1330.05 639.56 1343.38 616.51 1337.41 594.11L1316.88 517.23 1243.35 597.42Z" fill="#a45c8c" opacity="1" stroke-width="4" stroke="none"></path><path d="M1237.18 574.32L1165.19 652.93C1175.01 668.52 1193.81 675.93 1211.62 671.19L1307.6 645.53C1325.42 640.79 1338.05 625 1338.79 606.59L1237.18 574.32Z" fill="#a45c8c" opacity="1" stroke-width="4" stroke="none"></path><path d="M1233.98 626.87L1266.15 618.29C1270.69 617.06 1275.33 619.77 1276.56 624.31 1277.8 628.85 1275.08 633.49 1270.54 634.72L1238.37 643.31C1233.83 644.54 1229.19 641.83 1227.96 637.29 1226.72 632.7 1229.44 628.06 1233.98 626.87Z" fill="#ffffff" opacity="1" stroke-width="4" stroke="none"></path><path d="M1240.1 633.98L1264.37 627.52" stroke="#000000" stroke-width="4" stroke-linecap="round" stroke-linejoin="round" opacity="1" fill="none"></path><path d="M1165.14 653.28L1221.69 590.8" stroke="#000000" stroke-width="4" stroke-linecap="round" stroke-linejoin="round" opacity="1" fill="none"></path><path d="M1258.65 581.13L1338.39 606.4" stroke="#000000" stroke-width="4" stroke-linecap="round" stroke-linejoin="round" opacity="1" fill="none"></path><path d="M1154.28 567.66L1140.71 563.56" stroke="#000000" stroke-width="4" stroke-linecap="round" stroke-linejoin="round" opacity="1" fill="none"></path><path d="M1305.87 527.69L1315.94 517.38" stroke="#000000" stroke-width="4" stroke-linecap="round" stroke-linejoin="round" opacity="1" fill="none"></path></g><g><path d="M1329.14 488.35H1282.1L1264.09 502.87C1262.08 504.48 1259.19 504.14 1257.57 502.2 1256.9 501.39 1256.57 500.38 1256.57 499.31V448.78C1256.57 426.94 1274.31 409.2 1296.14 409.2H1329.14C1350.97 409.2 1368.71 426.94 1368.71 448.78 1368.78 470.61 1351.04 488.35 1329.14 488.35Z" fill="#d1c8df" opacity="1" stroke-width="4" stroke="none"></path><path d="M1310.86 463.29L1302.8 468.87C1301.32 469.88 1299.3 469.47 1298.29 468.06 1297.76 467.25 1297.55 466.25 1297.89 465.31L1300.65 455.9C1301.05 454.62 1300.58 453.28 1299.5 452.4L1291.71 446.42C1290.3 445.35 1290.03 443.33 1291.1 441.92 1291.71 441.18 1292.58 440.71 1293.59 440.65L1303.4 440.38C1304.74 440.31 1305.89 439.5 1306.36 438.23L1309.65 429.02C1310.25 427.34 1312.07 426.47 1313.75 427.07 1314.69 427.41 1315.36 428.15 1315.7 429.02L1318.99 438.23C1319.46 439.5 1320.6 440.31 1321.95 440.38L1331.76 440.65C1333.5 440.71 1334.91 442.19 1334.91 443.94 1334.91 444.88 1334.44 445.82 1333.64 446.42L1325.84 452.4C1324.77 453.21 1324.36 454.62 1324.7 455.9L1327.46 465.31C1327.99 466.99 1326.99 468.8 1325.31 469.34 1324.36 469.61 1323.36 469.47 1322.55 468.93L1314.49 463.36C1313.41 462.55 1311.93 462.55 1310.86 463.29Z" fill="#ffffff" opacity="1" stroke-width="4" stroke="none"></path></g><g><path d="M497.56 955.14L408.72 954.99 396.36 1064.36H509.86L497.56 955.14Z" fill="#d1c8df" opacity="1" stroke-width="4" stroke="none"></path><path d="M523.44 954.99L434.61 954.99 422.29 1064.36H535.76L523.44 954.99Z" fill="#d1c8df" opacity="1" stroke-width="4" stroke="none"></path><path d="M408.72 955.03L419.52 971.82 434.62 955.03H408.72Z" fill="#353535" opacity="0.2" stroke-width="4" stroke="none"></path><path d="M434.61 954.99L422.29 1064.36" stroke="#3c3c3c" stroke-width="4" stroke-linecap="round" stroke-linejoin="round" opacity="1" fill="none"></path><path d="M493.82 975.94V978.62C493.82 980.64 493.42 982.64 492.65 984.51 491.87 986.38 490.74 988.08 489.31 989.51 487.88 990.94 486.18 992.07 484.31 992.85 482.44 993.62 480.44 994.02 478.42 994.02V994.02C476.39 994.02 474.39 993.62 472.52 992.85 470.65 992.07 468.95 990.94 467.52 989.51 466.09 988.08 464.96 986.38 464.18 984.51 463.41 982.64 463.01 980.64 463.01 978.62V975.94" stroke="#3c3c3c" stroke-width="4" stroke-linecap="round" stroke-linejoin="round" opacity="1" fill="none"></path></g><g><path d="M457.9 755.33L457.44 690.12 472.34 705.4C481.93 704.42 491.45 705.7 500.39 709.28L499.15 688.41 521.76 694.66 522.83 681.24C510.67 670.13 494.77 663.97 478.3 664 441.76 664 412.14 693.62 412.14 730.15 412.11 750.58 421.58 769.88 437.72 782.4L431.53 745.96 457.9 755.33Z" fill="#a99ea7" opacity="1" stroke-width="4" stroke="none"></path><path d="M465.28 731.28C471.62 728.79 478.65 728.24 485.32 729.53L473.08 716.91C470.39 717.22 467.85 717.8 465.22 718.53L465.28 731.28Z" fill="#a99ea7" opacity="1" stroke-width="4" stroke="none"></path><path d="M529.87 688.62L528.62 704.34 507.36 698.45 510.67 755.45 498.99 743.52 495.07 746.85C487.11 738.91 474.8 738.24 465.37 744.33L465.53 766.05 441.21 757.32 446.41 787.98C456.18 793.37 467.18 796.21 478.36 796.18 514.9 796.18 544.51 766.57 544.51 730.03 544.51 714.99 539.34 700.35 529.87 688.62Z" fill="#a99ea7" opacity="1" stroke-width="4" stroke="none"></path><path d="M501.94 735.61L501.17 722.53C495.78 719.59 489.67 717.6 483.54 716.89L501.94 735.61Z" fill="#a99ea7" opacity="1" stroke-width="4" stroke="none"></path><path d="M465.22 718.61C467.82 717.87 470.52 717.35 473.21 717.05L465.16 708.81 465.22 718.61Z" fill="#ffffff" opacity="1" stroke-width="4" stroke="none"></path><path d="M501.18 722.62L500.38 709.11C491.44 705.56 481.76 704.21 472.17 705.22L483.78 717.14C489.9 717.81 495.78 719.68 501.18 722.62Z" fill="#ffffff" opacity="1" stroke-width="4" stroke="none"></path><path d="M436.22 722.31L444.64 730.74C448.44 726.94 452.85 723.81 457.69 721.49L457.59 708.59C449.57 711.56 442.25 716.25 436.22 722.31Z" fill="#ffffff" opacity="1" stroke-width="4" stroke="none"></path><path d="M512.05 730.74L520.47 722.31C516.79 718.64 512.69 715.48 508.19 712.88L509.08 728.01C510.09 728.9 511.07 729.79 512.05 730.74Z" fill="#ffffff" opacity="1" stroke-width="4" stroke="none"></path><path d="M465.28 731.16L465.37 744.46C474.81 738.36 487.24 739.68 495.17 747.61L499.12 743.66 485.19 729.39C478.54 728.07 471.62 728.68 465.28 731.16Z" fill="#ffffff" opacity="1" stroke-width="4" stroke="none"></path><path d="M453.07 739.16L457.82 743.94 457.76 735.21C456.11 736.4 454.51 737.72 453.07 739.16Z" fill="#ffffff" opacity="1" stroke-width="4" stroke="none"></path><path d="M469.91 756.03L478.33 764.46 486.75 756.03C482.09 751.38 474.56 751.38 469.91 756.03Z" fill="#ffffff" opacity="1" stroke-width="4" stroke="none"></path></g><g><path d="M843.32 321.18C844.1 295.82 827.26 281.23 799.06 279.76 771.34 278.39 752.05 277.12 740.6 292.49 730.22 306.4 731.68 335.38 728.55 348.9 725.42 362.41 721.3 375.83 728.75 387.77 736.19 399.72 752.35 404.32 766.84 401.19L766.94 413.62H842.34C844.79 376.02 842.83 337.05 843.32 321.18Z" fill="#ae805a" opacity="1" stroke-width="4" stroke="none"></path><path d="M766.95 401.19L766.75 419.79 792.9 390.71C780.75 397.56 766.95 401.19 766.95 401.19Z" fill="#151413" opacity="0.2" stroke-width="4" stroke="none"></path><path d="M847.92 319.13C848.7 293.77 828.33 270.85 800.13 269.38 772.42 268.01 752.15 277.02 740.69 292.4 739.52 293.96 738.64 295.43 737.66 297.29 737.66 297.29 746.27 307.38 781.53 295.63 773.3 306.59 776.63 322.07 804.05 318.15 801.11 325 799.15 331.86 801.11 341.65 801.11 341.65 827.06 331.27 832.45 347.53 837.34 362.21 810.9 377.88 810.9 377.88 824.61 392.57 843.41 394.53 843.41 394.53 844.98 369.36 847.63 335.38 847.92 319.13Z" fill="#4e3144" opacity="1" stroke-width="4" stroke="none"></path><path d="M767.03 400.99C774.67 398.74 779.76 396.88 786.81 393.84" stroke="#151413" stroke-width="4" stroke-linecap="round" stroke-linejoin="round" opacity="1" fill="none"></path><path d="M803.96 360.35L813.75 356.44" stroke="#151413" stroke-width="4" stroke-linecap="round" stroke-linejoin="round" opacity="1" fill="none"></path><path d="M753.53 344.78L752.75 347.53C752.26 349.09 752.75 350.76 753.92 351.83L754.22 352.13" stroke="#151413" stroke-width="4" stroke-linecap="round" stroke-linejoin="round" opacity="1" fill="none"></path><path d="M750.88 364.17C752.64 365.45 758.42 365.64 761.75 361.53" stroke="#151413" stroke-width="4" stroke-linecap="round" stroke-linejoin="round" opacity="1" fill="none"></path><path d="M770.27 342.73C772.06 342.73 773.5 341.28 773.5 339.5 773.5 337.71 772.06 336.26 770.27 336.26 768.48 336.26 767.03 337.71 767.03 339.5 767.03 341.28 768.48 342.73 770.27 342.73Z" fill="#171314" opacity="1" stroke-width="4" stroke="none"></path><path d="M742.85 338.62C744.64 338.62 746.08 337.17 746.08 335.38 746.08 333.6 744.64 332.15 742.85 332.15 741.07 332.15 739.62 333.6 739.62 335.38 739.62 337.17 741.07 338.62 742.85 338.62Z" fill="#171314" opacity="1" stroke-width="4" stroke="none"></path><path d="M606.25 437.81C606.25 437.71 606.16 437.62 606.16 437.62 606.25 423.71 603.22 410.1 597.34 397.56 590.78 383.76 591.47 362.31 586.57 362.31 579.62 362.31 577.86 374.65 574.92 392.77 574.82 393.16 574.33 393.35 574.04 393.06 561.11 382.19 536.53 337.54 521.16 349.39 521.06 349.48 520.87 349.48 520.67 349.48 513.13 346.74 508.53 350.37 509.11 358 509.11 358.2 509.02 358.49 508.82 358.59 497.66 363.1 511.86 383.76 519.1 395.61 519.4 396.19 518.71 396.68 518.22 396.19 507.06 383.86 497.56 379.84 494.52 383.86 491.59 387.77 506.28 406.38 521.84 425.86L521.94 425.96C535.36 460.53 547.11 465.43 549.07 465.92 549.26 466.01 549.36 466.11 549.46 466.31L557.39 499.01C557.49 499.31 557.78 499.5 558.08 499.4L623.2 471.89C623.49 471.79 623.59 471.4 623.49 471.2 618.79 461.9 611.64 448 606.25 437.81Z" fill="#ae805a" opacity="1" stroke-width="4" stroke="none"></path><path d="M574.82 393.65L572.86 403.44C572.86 403.44 564.64 419.89 569.04 438.3" stroke="#151413" stroke-width="4" stroke-linecap="round" stroke-linejoin="round" opacity="1" fill="none"></path><path d="M520.96 349.58C536.63 366.23 551.32 387.77 551.32 387.77" stroke="#151413" stroke-width="4" stroke-linecap="round" stroke-linejoin="round" opacity="1" fill="none"></path><path d="M509.21 358.4C516.07 365.25 538.59 396.59 538.59 396.59" stroke="#151413" stroke-width="4" stroke-linecap="round" stroke-linejoin="round" opacity="1" fill="none"></path><path d="M519.01 396.19L523.9 403.05" stroke="#151413" stroke-width="4" stroke-linecap="round" stroke-linejoin="round" opacity="1" fill="none"></path><path d="M612.03 1160.39H755C755 1160.39 757.15 1151.08 759.5 1139.43L618.3 1139.82C614.58 1144.62 612.03 1152.55 612.03 1160.39Z" fill="#000000" opacity="1" stroke-width="4" stroke="none"></path><path d="M772.62 1030.15L771.25 1026.62H673.13L671.66 1030.15C673.42 1060.01 673.03 1082.44 664.8 1097.03 664.8 1097.03 675.38 1123.08 676.65 1141.78H759C764 1117.79 771.64 1073.82 772.62 1030.15Z" fill="#ae805a" opacity="1" stroke-width="4" stroke="none"></path><path d="M664.81 1097.03C662.85 1100.65 660.21 1103.88 657.08 1106.53 636.81 1123.76 623.49 1131.5 616.93 1141.78H693.11C691.84 1123.08 681.17 1106.23 664.81 1097.03Z" fill="#402f5e" opacity="1" stroke-width="4" stroke="none"></path><path d="M770.96 977.27H668.04C669.32 996.85 670.69 1014.58 671.67 1030.15H772.63C772.82 1023.59 772.82 1017.03 772.63 1010.56 772.23 997.54 771.74 986.67 770.96 977.27Z" fill="#ffffff" opacity="1" stroke-width="4" stroke="none"></path><path d="M915.59 864.66C906.78 780.44 944.97 692.31 882.3 596.35H856.84 780.46 748.15C748.15 596.35 674.7 729.52 666.87 873.47 664.71 912.64 666.09 947.3 668.04 977.27L669.9 980.11 770.28 982.36 771.06 977.37C767.63 936.04 762.05 924.68 765.77 891.1 768.42 867.6 783.2 835.38 800.24 798.36 802.88 820.98 805.72 844.58 808.86 868.57 814.05 908.53 822.08 945.15 829.23 977.27L829.52 977.86 941.35 979.33V977.27C934.3 929.97 919.02 897.36 915.59 864.66Z" fill="#d1c8df" opacity="1" stroke-width="4" stroke="none"></path><path d="M774.67 857.41C800.82 793.66 800.72 799.64 800.72 799.64L789.85 704.46C770.85 748.13 774.67 857.41 774.67 857.41Z" fill="#474747" opacity="0.2" stroke-width="4" stroke="none"></path><path d="M906.49 645.41C900.91 629.25 893.07 612.9 882.3 596.35H748.15C775.47 613.97 830.99 641 906.49 645.41Z" fill="#474747" opacity="0.2" stroke-width="4" stroke="none"></path><path d="M900.9 449.46C875.34 413.53 844.3 421.46 842.24 422.05L842.44 411.18H766.84L766.74 424C766.74 424 724.54 414.31 687.42 461.21 668.82 484.72 646.3 517.03 646.3 517.03 646.3 517.03 635.92 495.78 621.72 467.87L556.6 495.88C570.21 555.32 596.26 623.38 660.98 599.29 696.43 586.07 732.47 535.64 732.47 535.64L748.14 596.35H832.55L830.98 621.03C908.24 638.46 942.02 621.81 950.84 602.22 974.83 548.86 900.9 449.46 900.9 449.46Z" fill="#402f5e" opacity="1" stroke-width="4" stroke="none"></path><path d="M635.33 494.8C642.08 508.32 646.3 517.03 646.3 517.03L639.93 526.73 635.33 494.8Z" fill="#000000" opacity="0.2" stroke-width="4" stroke="none"></path><path d="M732.47 535.64C732.47 535.64 721.5 551.01 705.64 567.07L725.71 507.63 732.47 535.64Z" fill="#000000" opacity="0.2" stroke-width="4" stroke="none"></path><path d="M646.31 517.03L637.49 530.45" stroke="#000000" stroke-width="4" stroke-linecap="round" stroke-linejoin="round" opacity="1" fill="none"></path><path d="M732.47 535.64L729.14 521.93" stroke="#000000" stroke-width="4" stroke-linecap="round" stroke-linejoin="round" opacity="1" fill="none"></path><path d="M660.99 599.29C664.03 598.11 666.97 596.84 669.81 595.27 660.5 569.32 632.01 555.71 605.96 565.01 599.11 567.46 592.94 571.38 587.75 576.47 604.2 599.48 627.41 611.82 660.99 599.29Z" fill="#ffffff" opacity="1" stroke-width="4" stroke="none"></path><path d="M795.34 1138.84C791.43 1143.44 788.29 1152.55 788.29 1160.39H931.36C931.36 1160.39 933.12 1152.06 935.18 1140.41L795.34 1138.84Z" fill="#000000" opacity="1" stroke-width="4" stroke="none"></path><path d="M945.17 1030.15V1028.68L840.19 1028.19 840.58 1030.25C845.97 1059.33 847.73 1081.95 840.98 1096.54L858.9 1141.88H934.88C938.9 1117.98 945.07 1074.6 945.17 1030.15Z" fill="#ae805a" opacity="1" stroke-width="4" stroke="none"></path><path d="M941.34 977.27H829.22C833.52 996.66 837.54 1014.38 840.57 1030.15H945.16C945.16 1025.94 945.06 1021.63 944.96 1017.42 944.57 1004 943.39 990.59 941.34 977.27Z" fill="#ffffff" opacity="1" stroke-width="4" stroke="none"></path><path d="M840.97 1096.44C839.2 1100.36 836.56 1103.79 833.33 1106.53 813.06 1123.76 799.15 1131.2 793.28 1141.78H870.34C869.07 1122.59 857.91 1105.45 840.97 1096.44Z" fill="#402f5e" opacity="1" stroke-width="4" stroke="none"></path><path d="M789.27 695.06C792.21 725.51 795.93 761.35 800.44 799.73" stroke="#474747" stroke-width="4" stroke-linecap="round" stroke-linejoin="round" opacity="1" fill="none"></path><path d="M914.12 977.66C916.57 997.83 919.31 1029.76 919.31 1029.76" stroke="#474747" stroke-width="4" stroke-linecap="round" stroke-linejoin="round" opacity="1" fill="none"></path><path d="M752.05 571.87C731.49 579.7 688.4 616.91 697.22 631.6 695.26 637.48 697.22 642.37 704.07 642.37 712.88 654.12 732.47 637.48 744.22 629.64 734.43 643.35 730.51 655.1 736.38 656.08 739.62 656.57 754.01 645.31 767.72 626.7 792.2 622.79 806.89 614.95 806.89 614.95 815.31 617.3 827.45 620.34 835.09 622L838.81 561.1C812.37 561.49 773.99 563.54 752.05 571.87Z" fill="#ae805a" opacity="1" stroke-width="4" stroke="none"></path><path d="M834.32 561.1C846.95 560.61 872.21 562.47 887.29 562.76" stroke="#000000" stroke-width="4" stroke-linecap="round" stroke-linejoin="round" opacity="1" fill="none"></path><path d="M859.78 533.09L873 561.1" stroke="#000000" stroke-width="4" stroke-linecap="round" stroke-linejoin="round" opacity="1" fill="none"></path><path d="M697.23 631.6C705.06 622.79 722.69 606.14 735.42 597.33" stroke="#151413" stroke-width="4" stroke-linecap="round" stroke-linejoin="round" opacity="1" fill="none"></path><path d="M704.08 642.37C709.96 636.5 729.54 619.85 745.21 609.08" stroke="#151413" stroke-width="4" stroke-linecap="round" stroke-linejoin="round" opacity="1" fill="none"></path><path d="M744.23 629.64L755 620.83" stroke="#151413" stroke-width="4" stroke-linecap="round" stroke-linejoin="round" opacity="1" fill="none"></path><path d="M908.74 607.12C908.74 613.68 910.01 620.24 912.56 626.31 934.3 622.3 946.15 612.6 950.85 602.22 956.62 589.3 956.72 573.73 953.49 557.47 928.03 560.12 908.74 581.56 908.74 607.12Z" fill="#ffffff" opacity="1" stroke-width="4" stroke="none"></path><path d="M842.15 422.05C837.26 424 828.93 429.49 827.95 430.47" stroke="#000000" stroke-width="4" stroke-linecap="round" stroke-linejoin="round" opacity="1" fill="none"></path></g><g><path d="M328.41 928.24L339.75 862.9 274.4 874.24 289.56 889.4 262.16 916.8 285.85 940.49 313.25 913.09 328.41 928.24Z" fill="#ffffff" opacity="1" stroke-width="4" stroke="none"></path></g></svg>