<svg xmlns="http://www.w3.org/2000/svg" height="1296" width="1546" version="1.1" xmlns:xlink="http://www.w3.org/1999/xlink" xmlns:svgjs="http://svgjs.com/svgjs"><rect fill="#f0e5ee" width="1546" height="1296"></rect><g><path d="M1376.11 1040.99L1273.65 959.56 1342.88 1063.03 1376.11 1040.99Z" fill="#a99ea7" opacity="1" stroke-width="4" stroke="none"></path></g><g><path d="M1121.09 201.8V207.46" stroke="#ffffff" stroke-width="4" stroke-linecap="round" stroke-linejoin="round" opacity="1" fill="none"></path><path d="M1121.09 223.52V229.18" stroke="#ffffff" stroke-width="4" stroke-linecap="round" stroke-linejoin="round" opacity="1" fill="none"></path><path d="M1134.78 215.49H1129.12" stroke="#ffffff" stroke-width="4" stroke-linecap="round" stroke-linejoin="round" opacity="1" fill="none"></path><path d="M1113.06 215.49H1107.4" stroke="#ffffff" stroke-width="4" stroke-linecap="round" stroke-linejoin="round" opacity="1" fill="none"></path><path d="M1111.42 205.82L1115.4 209.8" stroke="#ffffff" stroke-width="4" stroke-linecap="round" stroke-linejoin="round" opacity="1" fill="none"></path><path d="M1126.78 221.18L1130.77 225.17" stroke="#ffffff" stroke-width="4" stroke-linecap="round" stroke-linejoin="round" opacity="1" fill="none"></path><path d="M1130.77 205.82L1126.78 209.8" stroke="#ffffff" stroke-width="4" stroke-linecap="round" stroke-linejoin="round" opacity="1" fill="none"></path><path d="M1115.4 221.18L1111.42 225.17" stroke="#ffffff" stroke-width="4" stroke-linecap="round" stroke-linejoin="round" opacity="1" fill="none"></path></g><g><path d="M1309.19 716.5V750.49" stroke="#ffffff" stroke-width="4" stroke-linecap="round" stroke-linejoin="round" opacity="1" fill="none"></path><path d="M1309.19 846.99V880.99" stroke="#ffffff" stroke-width="4" stroke-linecap="round" stroke-linejoin="round" opacity="1" fill="none"></path><path d="M1391.44 798.74H1357.44" stroke="#ffffff" stroke-width="4" stroke-linecap="round" stroke-linejoin="round" opacity="1" fill="none"></path><path d="M1260.94 798.74H1226.95" stroke="#ffffff" stroke-width="4" stroke-linecap="round" stroke-linejoin="round" opacity="1" fill="none"></path><path d="M1251.07 740.63L1275.02 764.57" stroke="#ffffff" stroke-width="4" stroke-linecap="round" stroke-linejoin="round" opacity="1" fill="none"></path><path d="M1343.37 832.92L1367.31 856.86" stroke="#ffffff" stroke-width="4" stroke-linecap="round" stroke-linejoin="round" opacity="1" fill="none"></path><path d="M1367.31 740.63L1343.37 764.57" stroke="#ffffff" stroke-width="4" stroke-linecap="round" stroke-linejoin="round" opacity="1" fill="none"></path><path d="M1275.02 832.92L1251.07 856.86" stroke="#ffffff" stroke-width="4" stroke-linecap="round" stroke-linejoin="round" opacity="1" fill="none"></path></g><g><path d="M302.7 1003.6V1010.09" stroke="#402f5e" stroke-width="4" stroke-linecap="round" stroke-linejoin="round" opacity="1" fill="none"></path><path d="M302.7 1028.51V1035" stroke="#402f5e" stroke-width="4" stroke-linecap="round" stroke-linejoin="round" opacity="1" fill="none"></path><path d="M318.4 1019.3H311.91" stroke="#402f5e" stroke-width="4" stroke-linecap="round" stroke-linejoin="round" opacity="1" fill="none"></path><path d="M293.49 1019.3H287" stroke="#402f5e" stroke-width="4" stroke-linecap="round" stroke-linejoin="round" opacity="1" fill="none"></path><path d="M291.61 1008.21L296.18 1012.78" stroke="#402f5e" stroke-width="4" stroke-linecap="round" stroke-linejoin="round" opacity="1" fill="none"></path><path d="M309.23 1025.83L313.8 1030.4" stroke="#402f5e" stroke-width="4" stroke-linecap="round" stroke-linejoin="round" opacity="1" fill="none"></path><path d="M313.8 1008.21L309.23 1012.78" stroke="#402f5e" stroke-width="4" stroke-linecap="round" stroke-linejoin="round" opacity="1" fill="none"></path><path d="M296.18 1025.83L291.61 1030.4" stroke="#402f5e" stroke-width="4" stroke-linecap="round" stroke-linejoin="round" opacity="1" fill="none"></path></g><g><path d="M1150.7 1118.1C1160.58 1118.1 1168.6 1110.09 1168.6 1100.2 1168.6 1090.31 1160.58 1082.3 1150.7 1082.3 1140.81 1082.3 1132.8 1090.31 1132.8 1100.2 1132.8 1110.09 1140.81 1118.1 1150.7 1118.1Z" fill="#a45c8c" opacity="1" stroke-width="4" stroke="none"></path></g><g><path d="M160.29 479.2V486.68" stroke="#a45c8c" stroke-width="4" stroke-linecap="round" stroke-linejoin="round" opacity="1" fill="none"></path><path d="M160.29 507.91V515.39" stroke="#a45c8c" stroke-width="4" stroke-linecap="round" stroke-linejoin="round" opacity="1" fill="none"></path><path d="M178.39 497.3H170.91" stroke="#a45c8c" stroke-width="4" stroke-linecap="round" stroke-linejoin="round" opacity="1" fill="none"></path><path d="M149.68 497.3H142.2" stroke="#a45c8c" stroke-width="4" stroke-linecap="round" stroke-linejoin="round" opacity="1" fill="none"></path><path d="M147.51 484.51L152.77 489.78" stroke="#a45c8c" stroke-width="4" stroke-linecap="round" stroke-linejoin="round" opacity="1" fill="none"></path><path d="M167.81 504.82L173.08 510.08" stroke="#a45c8c" stroke-width="4" stroke-linecap="round" stroke-linejoin="round" opacity="1" fill="none"></path><path d="M173.08 484.51L167.81 489.78" stroke="#a45c8c" stroke-width="4" stroke-linecap="round" stroke-linejoin="round" opacity="1" fill="none"></path><path d="M152.77 504.82L147.51 510.08" stroke="#a45c8c" stroke-width="4" stroke-linecap="round" stroke-linejoin="round" opacity="1" fill="none"></path></g><g><path d="M232.73 598.56V608.26" stroke="#ffffff" stroke-width="4" stroke-linecap="round" stroke-linejoin="round" opacity="1" fill="none"></path><path d="M232.73 635.78V645.48" stroke="#ffffff" stroke-width="4" stroke-linecap="round" stroke-linejoin="round" opacity="1" fill="none"></path><path d="M256.19 622.02H246.49" stroke="#ffffff" stroke-width="4" stroke-linecap="round" stroke-linejoin="round" opacity="1" fill="none"></path><path d="M218.97 622.02H209.27" stroke="#ffffff" stroke-width="4" stroke-linecap="round" stroke-linejoin="round" opacity="1" fill="none"></path><path d="M216.15 605.44L222.98 612.27" stroke="#ffffff" stroke-width="4" stroke-linecap="round" stroke-linejoin="round" opacity="1" fill="none"></path><path d="M242.48 631.77L249.31 638.6" stroke="#ffffff" stroke-width="4" stroke-linecap="round" stroke-linejoin="round" opacity="1" fill="none"></path><path d="M249.31 605.44L242.48 612.27" stroke="#ffffff" stroke-width="4" stroke-linecap="round" stroke-linejoin="round" opacity="1" fill="none"></path><path d="M222.98 631.77L216.15 638.6" stroke="#ffffff" stroke-width="4" stroke-linecap="round" stroke-linejoin="round" opacity="1" fill="none"></path></g><g><path d="M391.75 752.57L317.84 729.94 340.69 758.36 324.78 791.12 391.75 752.57Z" fill="#ffffff" opacity="0.2" stroke-width="4" stroke="none"></path><path d="M114.93 778.03C122.74 791.91 150.58 814.55 166.27 796.32 181.96 778.1 182.4 720.83 160.2 670.13 141.9 628.34 121 647.5 135.83 691.03 148.7 729 181.09 776.36 227.23 782.44 273.37 788.51 267.58 725.6 261.15 704.99 256.81 691.03 245.45 687.56 248.93 701.52 252.4 715.47 281.97 752.86 340.33 744.18" stroke="#ffffff" stroke-width="4" stroke-linecap="round" stroke-linejoin="round" opacity="1" fill="none"></path><path d="M391.75 738.33L317.84 715.69 340.69 744.11 324.78 776.87 391.75 738.33Z" fill="#ffffff" opacity="1" stroke-width="4" stroke="none"></path></g><g><path d="M1126.57 346.12L1010.09 346.12C995.8 346.12 984.13 334.56 984.13 320.16 984.13 305.88 995.69 294.21 1010.09 294.21L1152.97 294.21C1172.38 294.21 1188.09 309.91 1188.09 329.33 1188.09 348.74 1172.38 364.44 1152.97 364.44L1046.95 364.44" stroke="#ffffff" stroke-width="4" stroke-linecap="round" stroke-linejoin="round" opacity="1" fill="none"></path></g><g><path d="M901.75 208.1C922.07 208.1 938.55 191.62 938.55 171.3 938.55 150.98 922.07 134.5 901.75 134.5 881.43 134.5 864.95 150.98 864.95 171.3 864.95 191.62 881.43 208.1 901.75 208.1Z" fill="#a99ea7" opacity="1" stroke-width="4" stroke="none"></path><path d="M901.06 151.25H901C897.09 151.35 889.67 153.94 889.67 163.11 889.67 164.85 891.06 166.24 892.8 166.24 894.53 166.24 895.92 164.85 895.92 163.11 895.92 158.11 899.88 157.56 901.12 157.5 905.12 157.52 907.59 159.67 907.59 163.15 907.59 165.71 906.53 166.64 903.74 168.43 901.24 170.02 897.46 172.46 897.64 177.97V178.88C897.64 180.61 899.03 182.01 900.77 182.01 902.48 182.01 903.9 180.63 903.93 178.9V177.79C903.88 175.96 904.66 175.29 907.14 173.7L907.18 173.68C909.84 171.97 913.85 169.35 913.85 163.15 913.85 156.15 908.6 151.25 901.06 151.25Z" fill="#fafafa" opacity="1" stroke-width="4" stroke="none"></path><path d="M900.96 185.39C899.05 185.39 897.5 186.94 897.5 188.85 897.5 190.76 899.05 192.32 900.96 192.32 902.89 192.3 904.45 190.76 904.43 188.85 904.43 186.94 902.87 185.39 900.96 185.39Z" fill="#fafafa" opacity="1" stroke-width="4" stroke="none"></path></g><g><path d="M967.38 530.24C953.7 530.24 942.57 519.12 942.57 505.44V425.43C942.57 411.75 953.7 400.62 967.38 400.62H1060.14C1073.82 400.62 1084.95 411.75 1084.95 425.43V505.44C1084.95 519.12 1073.82 530.24 1060.14 530.24H967.38Z" fill="#a45c8c" opacity="1" stroke-width="4" stroke="none"></path><path d="M987.49 492.54C981.46 492.54 976.56 487.64 976.56 481.61V449.25C976.56 443.22 981.46 438.32 987.49 438.32H1021.97C1028 438.32 1032.9 443.22 1032.9 449.25V481.61C1032.9 487.64 1028 492.54 1021.97 492.54H987.49Z" fill="#402f5e" opacity="1" stroke-width="4" stroke="none"></path><path d="M1047.84 486.94C1046.65 486.94 1045.51 486.55 1044.58 485.8L1024.64 469.91C1024.34 469.67 1024.06 469.39 1023.81 469.08 1022.94 467.98 1022.55 466.62 1022.7 465.23 1022.86 463.84 1023.55 462.59 1024.64 461.72L1044.58 445.82C1045.5 445.09 1046.67 444.68 1047.84 444.68 1050.74 444.68 1053.08 447.03 1053.08 449.92V481.71C1053.08 482.89 1052.67 484.05 1051.93 484.97 1050.93 486.23 1049.44 486.94 1047.84 486.94Z" fill="#402f5e" opacity="1" stroke-width="4" stroke="none"></path></g><g><path d="M471.94 745.08H740.2C756.31 745.08 769.36 758.14 769.36 774.25V991.65C769.36 1007.76 756.31 1020.82 740.2 1020.82H471.94C455.83 1020.82 442.77 1007.76 442.77 991.65V774.25C442.77 758.14 455.83 745.08 471.94 745.08Z" fill="#a45c8c" opacity="1" stroke-width="4" stroke="none"></path><path d="M549.32 838.15H504.05V963.02H549.32V838.15Z" fill="#ffffff" opacity="1" stroke-width="4" stroke="none"></path><path d="M628.81 886.9H583.54V962.91H628.81V886.9Z" fill="#402f5e" opacity="1" stroke-width="4" stroke="none"></path><path d="M708.3 815.62H663.03V963.02H708.3V815.62Z" fill="#ffffff" opacity="1" stroke-width="4" stroke="none"></path><path d="M504.05 726.13V758.24" stroke="#000000" stroke-width="4" stroke-linecap="round" stroke-linejoin="round" opacity="1" fill="none"></path><path d="M708.3 726.55V758.77" stroke="#000000" stroke-width="4" stroke-linecap="round" stroke-linejoin="round" opacity="1" fill="none"></path></g><g><path d="M330.72 602.43C321.84 602.41 313.33 598.88 307.05 592.6 300.77 586.32 297.23 577.81 297.23 568.93V251.47C297.23 242.59 300.77 234.08 307.05 227.8 313.33 221.52 321.84 217.98 330.72 217.97H742.6C751.48 217.98 759.99 221.52 766.27 227.8 772.55 234.08 776.08 242.59 776.09 251.47V568.93C776.08 577.81 772.55 586.32 766.27 592.6 759.99 598.88 751.48 602.41 742.6 602.43H330.72Z" fill="#ffffff" opacity="1" stroke-width="4" stroke="none"></path><path d="M297.25 289.93H777.57" stroke="#ffffff" stroke-width="4" opacity="1" fill="none"></path><path d="M332.47 265.95C339.5 265.95 345.21 260.25 345.21 253.22 345.21 246.18 339.5 240.48 332.47 240.48 325.43 240.48 319.73 246.18 319.73 253.22 319.73 260.25 325.43 265.95 332.47 265.95Z" fill="#ffffff" opacity="1" stroke-width="4" stroke="none"></path><path d="M371.07 265.95C378.11 265.95 383.81 260.25 383.81 253.22 383.81 246.18 378.11 240.48 371.07 240.48 364.04 240.48 358.33 246.18 358.33 253.22 358.33 260.25 364.04 265.95 371.07 265.95Z" fill="#ffffff" opacity="1" stroke-width="4" stroke="none"></path><path d="M409.67 265.95C416.71 265.95 422.41 260.25 422.41 253.22 422.41 246.18 416.71 240.48 409.67 240.48 402.64 240.48 396.93 246.18 396.93 253.22 396.93 260.25 402.64 265.95 409.67 265.95Z" fill="#ffffff" opacity="1" stroke-width="4" stroke="none"></path></g><g><path d="M715.74 416.75C652.21 416.75 675.04 576.29 620.38 576.29 578.9 576.29 593.64 460.06 538.98 460.06 434.75 460.06 470.37 329.08 362.22 329.08" stroke="#402f5e" stroke-width="4" stroke-linecap="round" opacity="1" fill="none"></path><path d="M716.4 438.4C704.43 438.4 694.74 428.71 694.74 416.75 694.74 404.78 704.43 395.09 716.4 395.09 728.36 395.09 738.05 404.78 738.05 416.75 738.05 428.71 728.36 438.4 716.4 438.4Z" fill="#a45c8c" opacity="1" stroke-width="4" stroke="none"></path><path d="M539.11 481.58C527.15 481.58 517.46 471.89 517.46 459.93 517.46 447.96 527.15 438.27 539.11 438.27 551.08 438.27 560.77 447.96 560.77 459.93 560.77 471.89 551.08 481.58 539.11 481.58Z" fill="#ffffff" opacity="1" stroke-width="4" stroke="none"></path><path d="M362.35 350.61C350.39 350.61 340.7 340.92 340.7 328.95 340.7 316.99 350.39 307.3 362.35 307.3 374.31 307.3 384.01 316.99 384.01 328.95 384.01 340.92 374.31 350.61 362.35 350.61Z" fill="#402f5e" opacity="1" stroke-width="4" stroke="none"></path></g><g><path d="M92.83 387.88L326.04 427.03 126.03 323.96 92.83 387.88Z" fill="#a45c8c" opacity="1" stroke-width="4" stroke="none"></path></g><g><path d="M1003.72 632.7H1214.11C1229.8 632.7 1242.49 645.4 1242.49 661.08V852.36C1242.49 868.04 1229.8 880.74 1214.11 880.74H1003.72C988.03 880.74 975.34 868.04 975.34 852.36V661.08C975.39 645.4 988.08 632.7 1003.72 632.7Z" fill="#4d4d4d" opacity="0.3" stroke-width="4" stroke="none"></path><path d="M1013.52 622.9H1223.92C1239.6 622.9 1252.29 635.59 1252.29 651.28V842.56C1252.29 858.24 1239.6 870.94 1223.92 870.94H1013.52C997.84 870.94 985.14 858.24 985.14 842.56V651.28C985.19 635.59 997.88 622.9 1013.52 622.9Z" fill="#ffffff" opacity="1" stroke-width="4" stroke="none"></path><path d="M1076.35 811.59H1212.59C1222.35 811.59 1230.24 819.48 1230.24 829.23 1230.24 838.98 1222.35 846.87 1212.59 846.87H1058.7V829.23C1058.7 819.48 1066.6 811.59 1076.35 811.59Z" fill="#402f5e" opacity="1" stroke-width="4" stroke="none"></path><path d="M1024.89 811.59C1034.64 811.59 1042.53 819.48 1042.53 829.23 1042.53 838.98 1034.64 846.87 1024.89 846.87 1015.14 846.87 1007.25 838.98 1007.25 829.23 1007.25 819.48 1015.14 811.59 1024.89 811.59Z" fill="#dd8f76" opacity="1" stroke-width="4" stroke="none"></path><path d="M1024.89 644.95H1212.59C1222.35 644.95 1230.24 652.84 1230.24 662.6V775.32C1230.24 785.07 1222.35 792.96 1212.59 792.96H1024.89C1015.14 792.96 1007.25 785.07 1007.25 775.32V662.6C1007.25 652.84 1015.14 644.95 1024.89 644.95Z" fill="#ffffff" opacity="1" stroke-width="4" stroke="none"></path><path d="M1032.24 768.46H1202.79" stroke="#8c8c8c" stroke-width="4" stroke-linecap="round" stroke-linejoin="round" opacity="1" fill="none"></path><path d="M1067.77 778.75C1073.32 778.75 1077.82 774.25 1077.82 768.7 1077.82 763.15 1073.32 758.66 1067.77 758.66 1062.22 758.66 1057.72 763.15 1057.72 768.7 1057.72 774.25 1062.22 778.75 1067.77 778.75Z" fill="#000000" opacity="1" stroke-width="4" stroke="none"></path><path d="M1134.72 702.34L1108.79 685.19C1106.78 683.87 1104.09 684.41 1102.76 686.42 1102.27 687.15 1102.03 687.98 1102.03 688.82V723.08C1102.03 725.48 1103.99 727.44 1106.39 727.44 1107.22 727.44 1108.11 727.19 1108.79 726.7L1134.72 709.55C1136.73 708.23 1137.22 705.48 1135.89 703.52 1135.55 703.03 1135.16 702.64 1134.72 702.34Z" fill="#dd8f76" opacity="1" stroke-width="4" stroke="none"></path></g><g><path d="M1310.39 836.4V844.91" stroke="#402f5e" stroke-width="4" stroke-linecap="round" stroke-linejoin="round" opacity="1" fill="none"></path><path d="M1310.39 869.06V877.57" stroke="#402f5e" stroke-width="4" stroke-linecap="round" stroke-linejoin="round" opacity="1" fill="none"></path><path d="M1330.97 856.99H1322.46" stroke="#402f5e" stroke-width="4" stroke-linecap="round" stroke-linejoin="round" opacity="1" fill="none"></path><path d="M1298.31 856.99H1289.8" stroke="#402f5e" stroke-width="4" stroke-linecap="round" stroke-linejoin="round" opacity="1" fill="none"></path><path d="M1295.84 842.44L1301.83 848.43" stroke="#402f5e" stroke-width="4" stroke-linecap="round" stroke-linejoin="round" opacity="1" fill="none"></path><path d="M1318.94 865.54L1324.93 871.53" stroke="#402f5e" stroke-width="4" stroke-linecap="round" stroke-linejoin="round" opacity="1" fill="none"></path><path d="M1324.93 842.44L1318.94 848.43" stroke="#402f5e" stroke-width="4" stroke-linecap="round" stroke-linejoin="round" opacity="1" fill="none"></path><path d="M1301.83 865.54L1295.84 871.53" stroke="#402f5e" stroke-width="4" stroke-linecap="round" stroke-linejoin="round" opacity="1" fill="none"></path></g><g><path d="M1215.07 674.85C1278.39 674.85 1329.73 623.51 1329.73 560.18 1329.73 496.85 1278.39 445.51 1215.07 445.51 1151.74 445.51 1100.4 496.85 1100.4 560.18 1100.4 623.51 1151.74 674.85 1215.07 674.85Z" fill="#ffffff" opacity="1" stroke-width="4" stroke="none"></path><path d="M1215.48 551.15C1230.17 551.15 1242.07 539.25 1242.07 524.56 1242.07 509.88 1230.17 497.97 1215.48 497.97 1200.8 497.97 1188.89 509.88 1188.89 524.56 1188.89 539.25 1200.8 551.15 1215.48 551.15Z" fill="#a45c8c" opacity="1" stroke-width="4" stroke="none"></path><path d="M1215.07 628.18C1234.84 628.18 1253.67 619.57 1266.51 604.57 1264.84 574.82 1242.61 551.21 1215.42 551.21 1187.94 551.21 1165.59 575.24 1164.33 605.47 1177.24 619.93 1195.71 628.18 1215.07 628.18Z" fill="#a45c8c" opacity="1" stroke-width="4" stroke="none"></path></g><g><path d="M1326.57 417.39H1273.82C1254.43 417.39 1238.66 433.16 1238.66 452.56 1238.66 469.82 1251.2 484.49 1268.23 487.25V505.3L1294.01 487.72H1326.57C1345.96 487.72 1361.73 471.95 1361.73 452.56 1361.73 433.08 1345.96 417.39 1326.57 417.39Z" fill="#402f5e" opacity="1" stroke-width="4" stroke="none"></path><path d="M1280.45 456.81C1283.1 456.81 1285.26 454.66 1285.26 452 1285.26 449.35 1283.1 447.19 1280.45 447.19 1277.79 447.19 1275.64 449.35 1275.64 452 1275.64 454.66 1277.79 456.81 1280.45 456.81Z" fill="#ffffff" opacity="1" stroke-width="4" stroke="none"></path><path d="M1300.16 456.81C1302.81 456.81 1304.97 454.66 1304.97 452 1304.97 449.35 1302.81 447.19 1300.16 447.19 1297.5 447.19 1295.35 449.35 1295.35 452 1295.35 454.66 1297.5 456.81 1300.16 456.81Z" fill="#ffffff" opacity="1" stroke-width="4" stroke="none"></path><path d="M1319.95 456.81C1322.6 456.81 1324.76 454.66 1324.76 452 1324.76 449.35 1322.6 447.19 1319.95 447.19 1317.29 447.19 1315.14 449.35 1315.14 452 1315.14 454.66 1317.29 456.81 1319.95 456.81Z" fill="#ffffff" opacity="1" stroke-width="4" stroke="none"></path></g><g><path d="M416.24 989.8H508.04C521.11 989.8 531.69 1000.38 531.69 1013.45V1062.71C531.69 1075.78 521.11 1086.36 508.04 1086.36H416.24C403.17 1086.36 392.59 1075.78 392.59 1062.71V1013.45C392.59 1000.38 403.17 989.8 416.24 989.8Z" fill="#402f5e" opacity="0.2" stroke-width="4" stroke="none"></path><path d="M408.08 974.99H499.88C512.95 974.99 523.53 985.57 523.53 998.64V1047.9C523.53 1060.97 512.95 1071.55 499.88 1071.55H408.08C395.01 1071.55 384.43 1060.97 384.43 1047.9V998.64C384.43 985.57 395.01 974.99 408.08 974.99Z" fill="#402f5e" opacity="1" stroke-width="4" stroke="none"></path><path d="M453.94 1044.95L516.13 981.49H391.76L453.94 1044.95Z" fill="#0c0c0c" opacity="0.2" stroke-width="4" stroke="none"></path><path d="M453.94 1031.2L516.09 981.54C511.97 977.48 506.23 974.99 499.88 974.99H408.08C401.73 974.99 395.99 977.48 391.84 981.49L453.94 1031.2Z" fill="#402f5e" opacity="1" stroke-width="4" stroke="none"></path><path d="M515.82 981.71L453.94 1031.13 391.96 981.61" stroke="#0c0c0c" stroke-width="4" stroke-linecap="round" stroke-linejoin="round" opacity="1" fill="none"></path><path d="M466.94 1022.14L517.41 1062.56" stroke="#0c0c0c" stroke-width="4" stroke-linecap="round" stroke-linejoin="round" opacity="1" fill="none"></path><path d="M390.17 1062.33L440.8 1021.91" stroke="#0c0c0c" stroke-width="4" stroke-linecap="round" stroke-linejoin="round" opacity="1" fill="none"></path></g><g><path d="M478.3 797.17C514.85 797.17 544.47 767.55 544.47 731 544.47 694.45 514.85 664.83 478.3 664.83 441.75 664.83 412.13 694.45 412.13 731 412.13 767.55 441.75 797.17 478.3 797.17Z" fill="#a99ea7" opacity="1" stroke-width="4" stroke="none"></path><path d="M499.9 710.09C495.87 705.46 490.04 702.8 483.87 702.71 470.67 702.71 460.04 715.4 460.04 731 460.04 746.6 470.75 759.29 483.87 759.29 490.04 759.2 495.78 756.54 499.9 751.91" stroke="#ffffff" stroke-width="4" stroke-linecap="round" stroke-linejoin="round" opacity="1" fill="none"></path><path d="M449.75 723.29H485.75" stroke="#ffffff" stroke-width="4" stroke-linecap="round" stroke-linejoin="round" opacity="1" fill="none"></path><path d="M449.75 738.71H485.75" stroke="#ffffff" stroke-width="4" stroke-linecap="round" stroke-linejoin="round" opacity="1" fill="none"></path></g><g><path d="M952.35 1055.38C947.93 1048.37 938.42 1037.04 932.85 1030.98L1011.71 969.22C1024.2 985.74 1036.78 1006.11 1046.77 1024.07L1002.97 1084.68 952.35 1055.38Z" fill="#e5bb98" opacity="1" stroke-width="4" stroke="none"></path><path d="M1014.11 972.29C1019.2 979.5 1024.2 986.8 1028.91 994.2L955.14 1020.8 1014.11 972.29Z" fill="#151414" opacity="0.2" stroke-width="4" stroke="none"></path><path d="M959.46 1080.07C960.42 1072.38 957.63 1064.22 952.35 1055.38L968.39 1041.74C973.96 1037.04 982.32 1037.71 987.03 1043.28 987.7 1044.05 988.18 1044.82 988.66 1045.68L998.65 1064.89 1046.77 1024.07C1052.73 1034.63 1057.82 1045.01 1061.28 1052.21L949.57 1146.06C946.11 1129.25 955.71 1112.15 959.46 1080.07Z" fill="#ffffff" opacity="1" stroke-width="4" stroke="none"></path><path d="M1060.8 1051.16C1065.69 1061.34 1068.19 1067.39 1068.19 1067.39L957.06 1161.14C952.93 1155.57 949.85 1150.67 949.47 1145.29L1060.8 1051.16Z" fill="#727272" opacity="1" stroke-width="4" stroke="none"></path><path d="M973.48 1087.56L956.67 1085.25" stroke="#5e5e5e" stroke-width="4" stroke-linecap="round" stroke-linejoin="round" opacity="1" fill="none"></path><path d="M969.74 1102.45L953.89 1098.8" stroke="#5e5e5e" stroke-width="4" stroke-linecap="round" stroke-linejoin="round" opacity="1" fill="none"></path><path d="M653.91 1077.76C655.06 1069.6 655.73 1057.98 655.45 1049.71L755.06 1048.56C753.81 1069.5 750.44 1094.57 746.41 1115.03L679.56 1129.54 653.91 1077.76Z" fill="#e5bb98" opacity="1" stroke-width="4" stroke="none"></path><path d="M687.91 1053.08H754.86C754.09 1062.87 753.04 1072.67 751.69 1082.47L687.91 1053.08Z" fill="#151414" opacity="0.2" stroke-width="4" stroke="none"></path><path d="M644.4 860.1C650.93 737.06 721.72 598.26 721.72 598.26H729.12 822.39 824.79C825.27 600.08 825.66 601.81 826.14 603.64L826.23 603.83C874.64 661.56 855.34 742.82 893.28 834.94 907.78 870.09 957.63 869.52 1011.62 919.75 1022.09 929.26 1031.5 939.83 1039.57 951.45L937.17 1035.69C907.4 1002.17 853.51 959.9 811.15 903.9 793.76 880.95 780.03 852.03 769.27 821.11 763.03 834.26 756.98 847.81 751.6 862.02 737.57 899.29 771.19 958.94 780.51 1002.74 784.45 1021.19 786.27 1039.63 785.22 1053.08H655.25C654.29 1007.55 640.27 937.91 644.4 860.1Z" fill="#402f5e" opacity="1" stroke-width="4" stroke="none"></path><path d="M812.98 730.81C797.8 830.33 788.58 867.31 788.58 867.31 784.54 859.14 780.61 850.31 776.76 840.99 773.98 834.17 771.48 827.54 769.18 821.2 783.78 791.04 798.38 760.88 812.98 730.81Z" fill="#000000" opacity="0.2" stroke-width="4" stroke="none"></path><path d="M739.88 1144.04C737.19 1154.7 735.17 1161.23 735.17 1161.23H589.75C589.94 1155.37 591.57 1148.27 594.45 1143.46L739.88 1144.04Z" fill="#727272" opacity="1" stroke-width="4" stroke="none"></path><path d="M643.54 1100.62C649.01 1095.44 652.18 1087.75 653.91 1077.76H675.52C682.82 1077.76 688.78 1083.72 688.78 1091.02 688.78 1091.98 688.68 1092.94 688.49 1093.9L683.78 1115.03H746.41C744.1 1126.75 741.7 1136.74 739.78 1144.42H593.97C601.66 1129.15 619.81 1122.91 643.54 1100.62Z" fill="#ffffff" opacity="1" stroke-width="4" stroke="none"></path><path d="M822.87 702.57C810.96 743.01 789.63 779.42 769.27 821.11" stroke="#000000" stroke-width="4" stroke-linecap="round" stroke-linejoin="round" opacity="1" fill="none"></path><path d="M635.95 1105.23L648.15 1116.47" stroke="#5e5e5e" stroke-width="4" stroke-linecap="round" stroke-linejoin="round" opacity="1" fill="none"></path><path d="M625.77 1113.69L635.56 1127.23" stroke="#5e5e5e" stroke-width="4" stroke-linecap="round" stroke-linejoin="round" opacity="1" fill="none"></path><path d="M808.46 284.07C802.3 284.07 797.32 279.08 797.32 272.92 797.32 266.77 802.3 261.78 808.46 261.78 814.62 261.78 819.6 266.77 819.6 272.92 819.6 279.08 814.62 284.07 808.46 284.07Z" fill="#ffffff" opacity="1" stroke-width="4" stroke="none"></path><path d="M756.88 392.99C742.28 395.78 724.41 389.44 718.75 377.33 713.18 365.33 719.03 348.52 724.13 336.41 724.13 336.41 717.21 328.73 718.65 324.31 719.9 320.57 729.6 319.13 729.6 319.13 734.12 304.62 738.15 294.44 745.07 286.95 757.36 273.6 774.55 275.04 800.2 280.32 829.79 286.37 844.96 302.89 840.06 330.17 837.85 342.66 829.88 378.68 823.64 404.23H754L756.88 392.99Z" fill="#e5bb98" opacity="1" stroke-width="4" stroke="none"></path><path d="M756.88 392.99C756.88 392.99 765.62 392.13 781.09 385.31L757.65 406.53 754.67 401.64 756.88 392.99Z" fill="#151414" opacity="0.2" stroke-width="4" stroke="none"></path><path d="M755.06 290.31C767.35 276.96 773.31 284.07 798.95 289.35 828.54 295.4 845.06 302.99 840.16 330.27 838.33 340.45 833.63 363.89 827.84 386.62 818.74 382.52 810.57 375.99 804.52 367.82 811.05 362.35 826.71 347.08 817.78 333.53 808.27 319.22 781.47 337.28 781.47 337.28 781.47 337.28 774.94 325.18 773.11 303.76 747.95 303.76 743.43 293.67 743.43 293.67 744.78 290.89 753.04 292.61 755.06 290.31Z" fill="#171314" opacity="1" stroke-width="4" stroke="none"></path><path d="M745.74 283.01C758.03 269.66 776.09 264.85 801.74 270.14 831.32 276.19 846.59 300.97 841.7 328.25 840.83 332.96 839.49 340.35 836.47 350.03L820.47 341.79C820.47 341.79 820.56 335.36 814.03 330.65 807.5 325.95 797.03 329.6 797.03 329.6L736.9 298.28C737.86 292.23 742.38 286.75 745.74 283.01Z" fill="#402f5e" opacity="1" stroke-width="4" stroke="none"></path><path d="M765.09 312.94L714.37 286.49" stroke="#000000" stroke-width="4" stroke-linecap="round" stroke-linejoin="round" opacity="1" fill="none"></path><path d="M801.93 346.5L792.61 353.99" stroke="#000000" stroke-width="4" stroke-linecap="round" stroke-linejoin="round" opacity="1" fill="none"></path><path d="M740.45 346.5C738.63 348.33 732.96 350.25 730.18 349.29" stroke="#000000" stroke-width="4" stroke-linecap="round" stroke-linejoin="round" opacity="1" fill="none"></path><path d="M741.42 324.31C739.77 324.31 738.44 322.98 738.44 321.33 738.44 319.69 739.77 318.36 741.42 318.36 743.06 318.36 744.39 319.69 744.39 321.33 744.39 322.98 743.06 324.31 741.42 324.31Z" fill="#171314" opacity="1" stroke-width="4" stroke="none"></path><path d="M755.44 393.21C761.2 392.32 767.16 390.59 773.59 388.38" stroke="#000000" stroke-width="4" stroke-linecap="round" stroke-linejoin="round" opacity="1" fill="none"></path><path d="M554.88 695.95C550.36 688.07 583.12 644.27 609.82 609.21L661.5 651.19C655.35 657.72 647.19 666.07 647.19 666.07 647.19 666.07 618.27 747.14 609.92 747.14 601.56 747.14 606.17 731.29 606.17 731.29 606.17 731.29 590.32 764.82 578.22 753.68 578.22 753.68 567.94 761.17 563.33 748.1 563.33 748.1 550.27 747.14 557.76 724.76 565.44 701.81 570.82 693.06 570.82 693.06 570.82 693.06 558.62 702.48 554.88 695.95Z" fill="#e5bb98" opacity="1" stroke-width="4" stroke="none"></path><path d="M960.71 692.49C962.24 693.64 970.31 700.46 976.27 716.31 976.36 716.41 976.36 716.6 976.56 716.6 979.05 718.33 1008.06 739.17 1007.1 745.41 1006.33 750.7 984.14 740.13 975.79 735.9 975.12 735.52 974.44 736.39 974.92 736.96 980.88 744.26 996.06 764.63 989.52 776.06 989.43 776.15 989.43 776.25 989.43 776.44 989.52 777.88 989.43 786.91 978.86 784.7 978.57 784.6 978.19 784.8 978.09 785.08 977.23 786.81 973.87 792.1 964.26 787.39 954.18 782.4 938.81 763.66 935.83 760.01 935.54 759.73 935.16 759.63 934.77 759.92 933.33 761.17 929.3 763.86 924.21 759.34 920.65 756.27 906.53 714.1 894.33 675.97 894.24 675.58 894.43 675.2 894.81 675.1L957.06 659.45C957.44 659.35 957.92 659.64 957.92 660.02 959.46 675.49 960.32 689.51 960.42 691.82 960.42 692.2 960.52 692.39 960.71 692.49Z" fill="#e5bb98" opacity="1" stroke-width="4" stroke="none"></path><path d="M634.8 575.97L687.91 620.93C687.34 621.6 685.03 624.48 684.46 625.15 675.33 636.3 665.05 647.53 657.56 655.41L606.84 613.15C616.54 600.28 627.69 585.68 634.8 575.97Z" fill="#ffffff" opacity="1" stroke-width="4" stroke="none"></path><path d="M958.11 663.1L895.1 678.85C890.88 665.5 885.69 648.59 882.04 637.07L952.73 620.74C954.94 635.05 956.96 651.57 958.11 663.1Z" fill="#ffffff" opacity="1" stroke-width="4" stroke="none"></path><path d="M642.58 564.64C659.38 537.65 700.4 427.67 750.73 417.39L754.67 401.54H824.32C823.45 405.57 822.58 409.32 821.72 412.68 869.26 408.94 925.17 526.41 941.02 572.04 946.3 587.21 950.24 605.56 953.12 623.33L883.19 640.81C878.39 625.35 874.64 613.05 872.91 607.48 866.38 586.06 840.26 550.62 840.26 550.62L826.23 603.73H719.03L714.33 578.57C714.33 578.57 707.8 596.15 686.28 623.04L633.07 578.38C637 573 640.37 568.19 642.58 564.64Z" fill="#a45c8c" opacity="1" stroke-width="4" stroke="none"></path><path d="M714.23 578.57C714.23 578.57 710.58 588.46 699.63 604.79L710.01 528.91C708.28 541.2 714.23 578.57 714.23 578.57Z" fill="#000000" opacity="0.2" stroke-width="4" stroke="none"></path><path d="M840.06 550.62L832.47 579.62 820.37 524.39 840.06 550.62Z" fill="#000000" opacity="0.2" stroke-width="4" stroke="none"></path><path d="M840.16 550.5C840.16 550.71 832.69 540.06 824.79 527.76" stroke="#000000" stroke-width="4" stroke-linecap="round" stroke-linejoin="round" opacity="1" fill="none"></path><path d="M821.72 412.68C814.32 413.83 807.12 415.85 801.07 420.17" stroke="#000000" stroke-width="4" stroke-linecap="round" stroke-linejoin="round" opacity="1" fill="none"></path><path d="M826.23 603.83L719.03 603.73" stroke="#000000" stroke-width="4" stroke-linecap="round" stroke-linejoin="round" opacity="1" fill="none"></path><path d="M714.33 578.57C709.62 551.58 708.66 517.19 715.19 497.59" stroke="#000000" stroke-width="4" stroke-linecap="round" stroke-linejoin="round" opacity="1" fill="none"></path><path d="M570.73 693.16C578.22 686.63 586.58 676.35 586.58 676.35 586.58 676.35 605.21 678.18 614.53 663.29" stroke="#000000" stroke-width="4" stroke-linecap="round" stroke-linejoin="round" opacity="1" fill="none"></path><path d="M563.23 748.2C566.98 737.06 586.58 698.83 586.58 698.83" stroke="#000000" stroke-width="4" stroke-linecap="round" stroke-linejoin="round" opacity="1" fill="none"></path><path d="M578.12 753.77C579.95 748.2 600.5 706.22 600.5 706.22" stroke="#000000" stroke-width="4" stroke-linecap="round" stroke-linejoin="round" opacity="1" fill="none"></path><path d="M606.07 731.39L613.57 712.76" stroke="#000000" stroke-width="4" stroke-linecap="round" stroke-linejoin="round" opacity="1" fill="none"></path><path d="M978.03 784.54C964.17 773.37 942.75 748.2 942.75 748.2" stroke="#000000" stroke-width="4" stroke-linecap="round" stroke-linejoin="round" opacity="1" fill="none"></path><path d="M988.27 775.09C980.88 767.7 960.42 743.49 957.63 739.75" stroke="#000000" stroke-width="4" stroke-linecap="round" stroke-linejoin="round" opacity="1" fill="none"></path><path d="M935.45 759.44C932.95 755.88 923.44 743.59 923.15 743.49" stroke="#000000" stroke-width="4" stroke-linecap="round" stroke-linejoin="round" opacity="1" fill="none"></path></g><g><path d="M281.75 893.86L264.45 919.77 295.96 906.91 281.75 893.86Z" fill="#ffffff" opacity="1" stroke-width="4" stroke="none"></path><path d="M281.75 893.86L264.45 919.77 295.96 906.91 281.75 893.86Z" fill="#515151" opacity="0.2" stroke-width="4" stroke="none"></path><path d="M281.75 893.86L300.01 934.18 359.68 863.25C359.81 863.12 359.68 862.93 359.49 863L281.75 893.86Z" fill="#ffffff" opacity="1" stroke-width="4" stroke="none"></path><path d="M246.51 868.65L281.75 893.86 359.55 863C359.62 862.93 359.62 862.8 359.49 862.8L246.51 868.65Z" fill="#ffffff" opacity="1" stroke-width="4" stroke="none"></path><path d="M281.75 893.86L289.4 910.77" stroke="#515151" stroke-width="4" stroke-linecap="round" stroke-linejoin="round" opacity="1" fill="none"></path><path d="M359.49 863L281.75 893.86" stroke="#515151" stroke-width="4" stroke-linecap="round" stroke-linejoin="round" opacity="1" fill="none"></path></g></svg>