<svg xmlns="http://www.w3.org/2000/svg" height="1296" width="1546" version="1.1" xmlns:xlink="http://www.w3.org/1999/xlink" xmlns:svgjs="http://svgjs.com/svgjs"><rect fill="#f0e5ee" width="1546" height="1296"></rect><g><path d="M1376.11 1040.99L1273.65 959.56 1342.88 1063.03 1376.11 1040.99Z" fill="#a99ea7" opacity="1" stroke-width="4" stroke="none"></path></g><g><path d="M1121.09 201.8V207.46" stroke="#ffffff" stroke-width="4" stroke-linecap="round" stroke-linejoin="round" opacity="1" fill="none"></path><path d="M1121.09 223.52V229.18" stroke="#ffffff" stroke-width="4" stroke-linecap="round" stroke-linejoin="round" opacity="1" fill="none"></path><path d="M1134.78 215.49H1129.12" stroke="#ffffff" stroke-width="4" stroke-linecap="round" stroke-linejoin="round" opacity="1" fill="none"></path><path d="M1113.06 215.49H1107.4" stroke="#ffffff" stroke-width="4" stroke-linecap="round" stroke-linejoin="round" opacity="1" fill="none"></path><path d="M1111.42 205.82L1115.4 209.8" stroke="#ffffff" stroke-width="4" stroke-linecap="round" stroke-linejoin="round" opacity="1" fill="none"></path><path d="M1126.78 221.18L1130.77 225.17" stroke="#ffffff" stroke-width="4" stroke-linecap="round" stroke-linejoin="round" opacity="1" fill="none"></path><path d="M1130.77 205.82L1126.78 209.8" stroke="#ffffff" stroke-width="4" stroke-linecap="round" stroke-linejoin="round" opacity="1" fill="none"></path><path d="M1115.4 221.18L1111.42 225.17" stroke="#ffffff" stroke-width="4" stroke-linecap="round" stroke-linejoin="round" opacity="1" fill="none"></path></g><g><path d="M1309.19 716.5V750.49" stroke="#ffffff" stroke-width="4" stroke-linecap="round" stroke-linejoin="round" opacity="1" fill="none"></path><path d="M1309.19 846.99V880.99" stroke="#ffffff" stroke-width="4" stroke-linecap="round" stroke-linejoin="round" opacity="1" fill="none"></path><path d="M1391.44 798.74H1357.44" stroke="#ffffff" stroke-width="4" stroke-linecap="round" stroke-linejoin="round" opacity="1" fill="none"></path><path d="M1260.94 798.74H1226.95" stroke="#ffffff" stroke-width="4" stroke-linecap="round" stroke-linejoin="round" opacity="1" fill="none"></path><path d="M1251.07 740.63L1275.02 764.57" stroke="#ffffff" stroke-width="4" stroke-linecap="round" stroke-linejoin="round" opacity="1" fill="none"></path><path d="M1343.37 832.92L1367.31 856.86" stroke="#ffffff" stroke-width="4" stroke-linecap="round" stroke-linejoin="round" opacity="1" fill="none"></path><path d="M1367.31 740.63L1343.37 764.57" stroke="#ffffff" stroke-width="4" stroke-linecap="round" stroke-linejoin="round" opacity="1" fill="none"></path><path d="M1275.02 832.92L1251.07 856.86" stroke="#ffffff" stroke-width="4" stroke-linecap="round" stroke-linejoin="round" opacity="1" fill="none"></path></g><g><path d="M302.7 1003.6V1010.09" stroke="#402f5e" stroke-width="4" stroke-linecap="round" stroke-linejoin="round" opacity="1" fill="none"></path><path d="M302.7 1028.51V1035" stroke="#402f5e" stroke-width="4" stroke-linecap="round" stroke-linejoin="round" opacity="1" fill="none"></path><path d="M318.4 1019.3H311.91" stroke="#402f5e" stroke-width="4" stroke-linecap="round" stroke-linejoin="round" opacity="1" fill="none"></path><path d="M293.49 1019.3H287" stroke="#402f5e" stroke-width="4" stroke-linecap="round" stroke-linejoin="round" opacity="1" fill="none"></path><path d="M291.61 1008.21L296.18 1012.78" stroke="#402f5e" stroke-width="4" stroke-linecap="round" stroke-linejoin="round" opacity="1" fill="none"></path><path d="M309.23 1025.83L313.8 1030.4" stroke="#402f5e" stroke-width="4" stroke-linecap="round" stroke-linejoin="round" opacity="1" fill="none"></path><path d="M313.8 1008.21L309.23 1012.78" stroke="#402f5e" stroke-width="4" stroke-linecap="round" stroke-linejoin="round" opacity="1" fill="none"></path><path d="M296.18 1025.83L291.61 1030.4" stroke="#402f5e" stroke-width="4" stroke-linecap="round" stroke-linejoin="round" opacity="1" fill="none"></path></g><g><path d="M1150.7 1118.1C1160.58 1118.1 1168.6 1110.09 1168.6 1100.2 1168.6 1090.31 1160.58 1082.3 1150.7 1082.3 1140.81 1082.3 1132.8 1090.31 1132.8 1100.2 1132.8 1110.09 1140.81 1118.1 1150.7 1118.1Z" fill="#a45c8c" opacity="1" stroke-width="4" stroke="none"></path></g><g><path d="M160.29 479.2V486.68" stroke="#a45c8c" stroke-width="4" stroke-linecap="round" stroke-linejoin="round" opacity="1" fill="none"></path><path d="M160.29 507.91V515.39" stroke="#a45c8c" stroke-width="4" stroke-linecap="round" stroke-linejoin="round" opacity="1" fill="none"></path><path d="M178.39 497.3H170.91" stroke="#a45c8c" stroke-width="4" stroke-linecap="round" stroke-linejoin="round" opacity="1" fill="none"></path><path d="M149.68 497.3H142.2" stroke="#a45c8c" stroke-width="4" stroke-linecap="round" stroke-linejoin="round" opacity="1" fill="none"></path><path d="M147.51 484.51L152.77 489.78" stroke="#a45c8c" stroke-width="4" stroke-linecap="round" stroke-linejoin="round" opacity="1" fill="none"></path><path d="M167.81 504.82L173.08 510.08" stroke="#a45c8c" stroke-width="4" stroke-linecap="round" stroke-linejoin="round" opacity="1" fill="none"></path><path d="M173.08 484.51L167.81 489.78" stroke="#a45c8c" stroke-width="4" stroke-linecap="round" stroke-linejoin="round" opacity="1" fill="none"></path><path d="M152.77 504.82L147.51 510.08" stroke="#a45c8c" stroke-width="4" stroke-linecap="round" stroke-linejoin="round" opacity="1" fill="none"></path></g><g><path d="M232.73 598.56V608.26" stroke="#ffffff" stroke-width="4" stroke-linecap="round" stroke-linejoin="round" opacity="1" fill="none"></path><path d="M232.73 635.78V645.48" stroke="#ffffff" stroke-width="4" stroke-linecap="round" stroke-linejoin="round" opacity="1" fill="none"></path><path d="M256.19 622.02H246.49" stroke="#ffffff" stroke-width="4" stroke-linecap="round" stroke-linejoin="round" opacity="1" fill="none"></path><path d="M218.97 622.02H209.27" stroke="#ffffff" stroke-width="4" stroke-linecap="round" stroke-linejoin="round" opacity="1" fill="none"></path><path d="M216.15 605.44L222.98 612.27" stroke="#ffffff" stroke-width="4" stroke-linecap="round" stroke-linejoin="round" opacity="1" fill="none"></path><path d="M242.48 631.77L249.31 638.6" stroke="#ffffff" stroke-width="4" stroke-linecap="round" stroke-linejoin="round" opacity="1" fill="none"></path><path d="M249.31 605.44L242.48 612.27" stroke="#ffffff" stroke-width="4" stroke-linecap="round" stroke-linejoin="round" opacity="1" fill="none"></path><path d="M222.98 631.77L216.15 638.6" stroke="#ffffff" stroke-width="4" stroke-linecap="round" stroke-linejoin="round" opacity="1" fill="none"></path></g><g><path d="M391.75 752.57L317.84 729.94 340.69 758.36 324.78 791.12 391.75 752.57Z" fill="#ffffff" opacity="0.2" stroke-width="4" stroke="none"></path><path d="M114.93 778.03C122.74 791.91 150.58 814.55 166.27 796.32 181.96 778.1 182.4 720.83 160.2 670.13 141.9 628.34 121 647.5 135.83 691.03 148.7 729 181.09 776.36 227.23 782.44 273.37 788.51 267.58 725.6 261.15 704.99 256.81 691.03 245.45 687.56 248.93 701.52 252.4 715.47 281.97 752.86 340.33 744.18" stroke="#ffffff" stroke-width="4" stroke-linecap="round" stroke-linejoin="round" opacity="1" fill="none"></path><path d="M391.75 738.33L317.84 715.69 340.69 744.11 324.78 776.87 391.75 738.33Z" fill="#ffffff" opacity="1" stroke-width="4" stroke="none"></path></g><g><path d="M1126.57 346.12L1010.09 346.12C995.8 346.12 984.13 334.56 984.13 320.16 984.13 305.88 995.69 294.21 1010.09 294.21L1152.97 294.21C1172.38 294.21 1188.09 309.91 1188.09 329.33 1188.09 348.74 1172.38 364.44 1152.97 364.44L1046.95 364.44" stroke="#ffffff" stroke-width="4" stroke-linecap="round" stroke-linejoin="round" opacity="1" fill="none"></path></g><g><path d="M901.75 208.1C922.07 208.1 938.55 191.62 938.55 171.3 938.55 150.98 922.07 134.5 901.75 134.5 881.43 134.5 864.95 150.98 864.95 171.3 864.95 191.62 881.43 208.1 901.75 208.1Z" fill="#a99ea7" opacity="1" stroke-width="4" stroke="none"></path><path d="M901.06 151.25H901C897.09 151.35 889.67 153.94 889.67 163.11 889.67 164.85 891.06 166.24 892.8 166.24 894.53 166.24 895.92 164.85 895.92 163.11 895.92 158.11 899.88 157.56 901.12 157.5 905.12 157.52 907.59 159.67 907.59 163.15 907.59 165.71 906.53 166.64 903.74 168.43 901.24 170.02 897.46 172.46 897.64 177.97V178.88C897.64 180.61 899.03 182.01 900.77 182.01 902.48 182.01 903.9 180.63 903.93 178.9V177.79C903.88 175.96 904.66 175.29 907.14 173.7L907.18 173.68C909.84 171.97 913.85 169.35 913.85 163.15 913.85 156.15 908.6 151.25 901.06 151.25Z" fill="#fafafa" opacity="1" stroke-width="4" stroke="none"></path><path d="M900.96 185.39C899.05 185.39 897.5 186.94 897.5 188.85 897.5 190.76 899.05 192.32 900.96 192.32 902.89 192.3 904.45 190.76 904.43 188.85 904.43 186.94 902.87 185.39 900.96 185.39Z" fill="#fafafa" opacity="1" stroke-width="4" stroke="none"></path></g><g><path d="M967.38 530.24C953.7 530.24 942.57 519.12 942.57 505.44V425.43C942.57 411.75 953.7 400.62 967.38 400.62H1060.14C1073.82 400.62 1084.95 411.75 1084.95 425.43V505.44C1084.95 519.12 1073.82 530.24 1060.14 530.24H967.38Z" fill="#a45c8c" opacity="1" stroke-width="4" stroke="none"></path><path d="M987.49 492.54C981.46 492.54 976.56 487.64 976.56 481.61V449.25C976.56 443.22 981.46 438.32 987.49 438.32H1021.97C1028 438.32 1032.9 443.22 1032.9 449.25V481.61C1032.9 487.64 1028 492.54 1021.97 492.54H987.49Z" fill="#402f5e" opacity="1" stroke-width="4" stroke="none"></path><path d="M1047.84 486.94C1046.65 486.94 1045.51 486.55 1044.58 485.8L1024.64 469.91C1024.34 469.67 1024.06 469.39 1023.81 469.08 1022.94 467.98 1022.55 466.62 1022.7 465.23 1022.86 463.84 1023.55 462.59 1024.64 461.72L1044.58 445.82C1045.5 445.09 1046.67 444.68 1047.84 444.68 1050.74 444.68 1053.08 447.03 1053.08 449.92V481.71C1053.08 482.89 1052.67 484.05 1051.93 484.97 1050.93 486.23 1049.44 486.94 1047.84 486.94Z" fill="#402f5e" opacity="1" stroke-width="4" stroke="none"></path></g><g><path d="M471.94 745.08H740.2C756.31 745.08 769.36 758.14 769.36 774.25V991.65C769.36 1007.76 756.31 1020.82 740.2 1020.82H471.94C455.83 1020.82 442.77 1007.76 442.77 991.65V774.25C442.77 758.14 455.83 745.08 471.94 745.08Z" fill="#a45c8c" opacity="1" stroke-width="4" stroke="none"></path><path d="M549.32 838.15H504.05V963.02H549.32V838.15Z" fill="#ffffff" opacity="1" stroke-width="4" stroke="none"></path><path d="M628.81 886.9H583.54V962.91H628.81V886.9Z" fill="#402f5e" opacity="1" stroke-width="4" stroke="none"></path><path d="M708.3 815.62H663.03V963.02H708.3V815.62Z" fill="#ffffff" opacity="1" stroke-width="4" stroke="none"></path><path d="M504.05 726.13V758.24" stroke="#000000" stroke-width="4" stroke-linecap="round" stroke-linejoin="round" opacity="1" fill="none"></path><path d="M708.3 726.55V758.77" stroke="#000000" stroke-width="4" stroke-linecap="round" stroke-linejoin="round" opacity="1" fill="none"></path></g><g><path d="M330.72 602.43C321.84 602.41 313.33 598.88 307.05 592.6 300.77 586.32 297.23 577.81 297.23 568.93V251.47C297.23 242.59 300.77 234.08 307.05 227.8 313.33 221.52 321.84 217.98 330.72 217.97H742.6C751.48 217.98 759.99 221.52 766.27 227.8 772.55 234.08 776.08 242.59 776.09 251.47V568.93C776.08 577.81 772.55 586.32 766.27 592.6 759.99 598.88 751.48 602.41 742.6 602.43H330.72Z" fill="#ffffff" opacity="1" stroke-width="4" stroke="none"></path><path d="M297.25 289.93H777.57" stroke="#ffffff" stroke-width="4" opacity="1" fill="none"></path><path d="M332.47 265.95C339.5 265.95 345.21 260.25 345.21 253.22 345.21 246.18 339.5 240.48 332.47 240.48 325.43 240.48 319.73 246.18 319.73 253.22 319.73 260.25 325.43 265.95 332.47 265.95Z" fill="#ffffff" opacity="1" stroke-width="4" stroke="none"></path><path d="M371.07 265.95C378.11 265.95 383.81 260.25 383.81 253.22 383.81 246.18 378.11 240.48 371.07 240.48 364.04 240.48 358.33 246.18 358.33 253.22 358.33 260.25 364.04 265.95 371.07 265.95Z" fill="#ffffff" opacity="1" stroke-width="4" stroke="none"></path><path d="M409.67 265.95C416.71 265.95 422.41 260.25 422.41 253.22 422.41 246.18 416.71 240.48 409.67 240.48 402.64 240.48 396.93 246.18 396.93 253.22 396.93 260.25 402.64 265.95 409.67 265.95Z" fill="#ffffff" opacity="1" stroke-width="4" stroke="none"></path></g><g><path d="M526.13 394.46L594.59 449.64" stroke="#a45c8c" stroke-width="4" stroke-linecap="round" stroke-linejoin="round" opacity="1" fill="none"></path><path d="M487 443.24L555.49 497.84" stroke="#a45c8c" stroke-width="4" stroke-linecap="round" stroke-linejoin="round" opacity="1" fill="none"></path><path d="M498.11 411.93L583.46 480.29" stroke="#a45c8c" stroke-width="4" stroke-linecap="round" stroke-linejoin="round" opacity="1" fill="none"></path><path d="M560.89 360.72L619.83 408.02" stroke="#a45c8c" stroke-width="4" stroke-linecap="round" stroke-linejoin="round" opacity="1" fill="none"></path><path d="M462.62 483.16L521.56 530.46" stroke="#a45c8c" stroke-width="4" stroke-linecap="round" stroke-linejoin="round" opacity="1" fill="none"></path><path d="M540.78 500.79C570.97 500.79 595.42 476.32 595.42 446.15 595.42 415.97 570.97 391.51 540.78 391.51 510.61 391.51 486.15 415.97 486.15 446.15 486.15 476.32 510.61 500.79 540.78 500.79Z" stroke="#402f5e" stroke-width="4" stroke-linecap="round" stroke-linejoin="round" opacity="1" fill="none"></path><path d="M651.98 394.86C633.07 418.39 579.55 406.83 575.16 403.32 570.78 399.81 547.8 350.03 566.71 326.42" stroke="#402f5e" stroke-width="4" stroke-linecap="round" stroke-linejoin="round" opacity="1" fill="none"></path><path d="M429.83 497.04C448.74 473.51 502.15 485.19 506.42 488.81 510.78 492.28 534 541.87 515.1 565.4" stroke="#402f5e" stroke-width="4" stroke-linecap="round" stroke-linejoin="round" opacity="1" fill="none"></path></g><g><path d="M92.83 387.88L326.04 427.03 126.03 323.96 92.83 387.88Z" fill="#a45c8c" opacity="1" stroke-width="4" stroke="none"></path></g><g><path d="M976.94 618.3C978.36 619.72 974.27 932.9 978.36 932.57H1235.25C1236.01 932.57 1236.67 931.9 1236.67 931.15 1236.67 931.15 1236.09 622.14 1236.67 618.3 1236.67 617.54 1236.01 616.88 1235.25 616.88H978.36C977.61 616.88 976.94 617.54 976.94 618.3Z" fill="#ffffff" opacity="1" stroke-width="4" stroke="none"></path><path d="M1107.22 719.52C1125.67 719.52 1140.63 704.56 1140.63 686.11 1140.63 667.66 1125.67 652.7 1107.22 652.7 1088.78 652.7 1073.82 667.66 1073.82 686.11 1073.82 704.56 1088.78 719.52 1107.22 719.52Z" fill="#dd8f76" opacity="1" stroke-width="4" stroke="none"></path><path d="M1102.05 683.27C1106.24 683.27 1109.65 679.87 1109.65 675.67 1109.65 671.47 1106.24 668.07 1102.05 668.07 1097.85 668.07 1094.45 671.47 1094.45 675.67 1094.45 679.87 1097.85 683.27 1102.05 683.27Z" fill="#deb6a9" opacity="1" stroke-width="4" stroke="none"></path><path d="M1127.35 730.04H1086.35V849.72C1086.35 856.23 1088.85 862.41 1093.28 867.17L1095.53 869.6C1099.46 873.77 1101.63 879.2 1101.63 884.96V895.65C1101.63 898.58 1103.97 900.91 1106.89 900.91 1109.81 900.91 1112.15 898.58 1112.15 895.65V884.96C1112.15 879.28 1114.32 873.77 1118.25 869.6L1120.5 867.17C1124.93 862.5 1127.44 856.23 1127.44 849.72L1127.35 730.04Z" fill="#dd8f76" opacity="1" stroke-width="4" stroke="none"></path><path d="M1094.45 851.64V812.97H1119.25V851.64C1119.25 858.49 1113.74 864 1106.89 864 1099.96 864.08 1094.45 858.49 1094.45 851.64Z" fill="#cd6240" opacity="1" stroke-width="4" stroke="none"></path><path d="M1070.14 718.6H1143.55C1150.4 718.6 1155.91 724.11 1155.91 731.04 1155.91 737.89 1150.4 743.49 1143.55 743.49H1070.14C1063.29 743.49 1057.78 737.97 1057.78 731.04 1057.7 724.11 1063.29 718.6 1070.14 718.6Z" fill="#cd6240" opacity="1" stroke-width="4" stroke="none"></path><path d="M1104.47 762.44H1109.15" stroke="#fcfcfc" stroke-width="4" stroke-linecap="round" stroke-linejoin="round" opacity="1" fill="none"></path><path d="M1104.47 782.49H1109.15" stroke="#ffffff" stroke-width="4" stroke-linecap="round" stroke-linejoin="round" opacity="1" fill="none"></path><path d="M1104.47 802.53H1109.15" stroke="#ffffff" stroke-width="4" stroke-linecap="round" stroke-linejoin="round" opacity="1" fill="none"></path><path d="M1104.47 822.58H1109.15" stroke="#ffffff" stroke-width="4" stroke-linecap="round" stroke-linejoin="round" opacity="1" fill="none"></path><path d="M1104.47 842.62H1109.15" stroke="#ffffff" stroke-width="4" stroke-linecap="round" stroke-linejoin="round" opacity="1" fill="none"></path><path d="M1011.93 899.16H1052.02" stroke="#dd8f76" stroke-width="4" stroke-linecap="round" stroke-linejoin="round" opacity="1" fill="none"></path></g><g><path d="M1310.39 836.4V844.91" stroke="#402f5e" stroke-width="4" stroke-linecap="round" stroke-linejoin="round" opacity="1" fill="none"></path><path d="M1310.39 869.06V877.57" stroke="#402f5e" stroke-width="4" stroke-linecap="round" stroke-linejoin="round" opacity="1" fill="none"></path><path d="M1330.97 856.99H1322.46" stroke="#402f5e" stroke-width="4" stroke-linecap="round" stroke-linejoin="round" opacity="1" fill="none"></path><path d="M1298.31 856.99H1289.8" stroke="#402f5e" stroke-width="4" stroke-linecap="round" stroke-linejoin="round" opacity="1" fill="none"></path><path d="M1295.84 842.44L1301.83 848.43" stroke="#402f5e" stroke-width="4" stroke-linecap="round" stroke-linejoin="round" opacity="1" fill="none"></path><path d="M1318.94 865.54L1324.93 871.53" stroke="#402f5e" stroke-width="4" stroke-linecap="round" stroke-linejoin="round" opacity="1" fill="none"></path><path d="M1324.93 842.44L1318.94 848.43" stroke="#402f5e" stroke-width="4" stroke-linecap="round" stroke-linejoin="round" opacity="1" fill="none"></path><path d="M1301.83 865.54L1295.84 871.53" stroke="#402f5e" stroke-width="4" stroke-linecap="round" stroke-linejoin="round" opacity="1" fill="none"></path></g><g><path d="M1215.07 674.85C1278.39 674.85 1329.73 623.51 1329.73 560.18 1329.73 496.85 1278.39 445.51 1215.07 445.51 1151.74 445.51 1100.4 496.85 1100.4 560.18 1100.4 623.51 1151.74 674.85 1215.07 674.85Z" fill="#ffffff" opacity="1" stroke-width="4" stroke="none"></path><path d="M1215.48 551.15C1230.17 551.15 1242.07 539.25 1242.07 524.56 1242.07 509.88 1230.17 497.97 1215.48 497.97 1200.8 497.97 1188.89 509.88 1188.89 524.56 1188.89 539.25 1200.8 551.15 1215.48 551.15Z" fill="#a45c8c" opacity="1" stroke-width="4" stroke="none"></path><path d="M1215.07 628.18C1234.84 628.18 1253.67 619.57 1266.51 604.57 1264.84 574.82 1242.61 551.21 1215.42 551.21 1187.94 551.21 1165.59 575.24 1164.33 605.47 1177.24 619.93 1195.71 628.18 1215.07 628.18Z" fill="#a45c8c" opacity="1" stroke-width="4" stroke="none"></path></g><g><path d="M1326.57 417.39H1273.82C1254.43 417.39 1238.66 433.16 1238.66 452.56 1238.66 469.82 1251.2 484.49 1268.23 487.25V505.3L1294.01 487.72H1326.57C1345.96 487.72 1361.73 471.95 1361.73 452.56 1361.73 433.08 1345.96 417.39 1326.57 417.39Z" fill="#402f5e" opacity="1" stroke-width="4" stroke="none"></path><path d="M1280.45 456.81C1283.1 456.81 1285.26 454.66 1285.26 452 1285.26 449.35 1283.1 447.19 1280.45 447.19 1277.79 447.19 1275.64 449.35 1275.64 452 1275.64 454.66 1277.79 456.81 1280.45 456.81Z" fill="#ffffff" opacity="1" stroke-width="4" stroke="none"></path><path d="M1300.16 456.81C1302.81 456.81 1304.97 454.66 1304.97 452 1304.97 449.35 1302.81 447.19 1300.16 447.19 1297.5 447.19 1295.35 449.35 1295.35 452 1295.35 454.66 1297.5 456.81 1300.16 456.81Z" fill="#ffffff" opacity="1" stroke-width="4" stroke="none"></path><path d="M1319.95 456.81C1322.6 456.81 1324.76 454.66 1324.76 452 1324.76 449.35 1322.6 447.19 1319.95 447.19 1317.29 447.19 1315.14 449.35 1315.14 452 1315.14 454.66 1317.29 456.81 1319.95 456.81Z" fill="#ffffff" opacity="1" stroke-width="4" stroke="none"></path></g><g><path d="M416.24 989.8H508.04C521.11 989.8 531.69 1000.38 531.69 1013.45V1062.71C531.69 1075.78 521.11 1086.36 508.04 1086.36H416.24C403.17 1086.36 392.59 1075.78 392.59 1062.71V1013.45C392.59 1000.38 403.17 989.8 416.24 989.8Z" fill="#402f5e" opacity="0.2" stroke-width="4" stroke="none"></path><path d="M408.08 974.99H499.88C512.95 974.99 523.53 985.57 523.53 998.64V1047.9C523.53 1060.97 512.95 1071.55 499.88 1071.55H408.08C395.01 1071.55 384.43 1060.97 384.43 1047.9V998.64C384.43 985.57 395.01 974.99 408.08 974.99Z" fill="#402f5e" opacity="1" stroke-width="4" stroke="none"></path><path d="M453.94 1044.95L516.13 981.49H391.76L453.94 1044.95Z" fill="#0c0c0c" opacity="0.2" stroke-width="4" stroke="none"></path><path d="M453.94 1031.2L516.09 981.54C511.97 977.48 506.23 974.99 499.88 974.99H408.08C401.73 974.99 395.99 977.48 391.84 981.49L453.94 1031.2Z" fill="#402f5e" opacity="1" stroke-width="4" stroke="none"></path><path d="M515.82 981.71L453.94 1031.13 391.96 981.61" stroke="#0c0c0c" stroke-width="4" stroke-linecap="round" stroke-linejoin="round" opacity="1" fill="none"></path><path d="M466.94 1022.14L517.41 1062.56" stroke="#0c0c0c" stroke-width="4" stroke-linecap="round" stroke-linejoin="round" opacity="1" fill="none"></path><path d="M390.17 1062.33L440.8 1021.91" stroke="#0c0c0c" stroke-width="4" stroke-linecap="round" stroke-linejoin="round" opacity="1" fill="none"></path></g><g><path d="M478.3 797.17C514.85 797.17 544.47 767.55 544.47 731 544.47 694.45 514.85 664.83 478.3 664.83 441.75 664.83 412.13 694.45 412.13 731 412.13 767.55 441.75 797.17 478.3 797.17Z" fill="#a99ea7" opacity="1" stroke-width="4" stroke="none"></path><path d="M499.9 710.09C495.87 705.46 490.04 702.8 483.87 702.71 470.67 702.71 460.04 715.4 460.04 731 460.04 746.6 470.75 759.29 483.87 759.29 490.04 759.2 495.78 756.54 499.9 751.91" stroke="#ffffff" stroke-width="4" stroke-linecap="round" stroke-linejoin="round" opacity="1" fill="none"></path><path d="M449.75 723.29H485.75" stroke="#ffffff" stroke-width="4" stroke-linecap="round" stroke-linejoin="round" opacity="1" fill="none"></path><path d="M449.75 738.71H485.75" stroke="#ffffff" stroke-width="4" stroke-linecap="round" stroke-linejoin="round" opacity="1" fill="none"></path></g><g><path d="M1145.97 1070.07L1183.49 1043.35C1183.49 1043.35 1169.31 1013.02 1176.94 999.61 1162.87 996.34 1149.46 988.16 1139.09 969.18 1135.39 962.31 1130.81 953.47 1126.44 945.29L1029.81 986.41 1040.39 1004.52C1054.46 1023.17 1069.84 1040.95 1086.3 1057.74 1087.18 1056.76 1145.97 1070.07 1145.97 1070.07Z" fill="#b66f63" opacity="1" stroke-width="4" stroke="none"></path><path d="M1100.81 962.96L1042.57 1002.12C1041.04 1003.21 1040.6 1005.28 1041.8 1006.81 1049.66 1017.06 1058.06 1027.2 1066.56 1036.91 1068.09 1038.66 1070.93 1038.33 1072.02 1036.15L1105.61 967.11C1107.03 964.16 1103.65 961.11 1100.81 962.96Z" fill="#231f1f" opacity="0.2" stroke-width="4" stroke="none"></path><path d="M853.88 1062C854.64 1053.82 855.62 1044.87 856.82 1035.71L856.6 1026.33 752.22 1035.71C752.22 1035.71 753.21 1066.47 760.08 1104.32L801.31 1147.83 857.37 1151 870.78 1111.08C859.44 1100.5 851.59 1085.45 853.88 1062Z" fill="#b66f63" opacity="1" stroke-width="4" stroke="none"></path><path d="M752.22 1035.71C752.22 1035.71 752.77 1051.74 755.61 1075.08 755.71 1075.74 756.37 1076.07 756.91 1075.85L851.48 1036.91C852.46 1036.47 852.13 1035.17 851.15 1035.17L753.21 1033.09C752.66 1033.09 752.22 1033.53 752.22 1034.07V1035.71 1035.71Z" fill="#231f1f" opacity="0.2" stroke-width="4" stroke="none"></path><path d="M789.31 386.96C804.58 377.15 833.15 376.06 849.41 396.78 864.67 416.41 852.68 447.06 852.68 447.06L781.67 465.71 758.77 403.43 789.31 386.96Z" fill="#221f1f" opacity="1" stroke-width="4" stroke="none"></path><path d="M480.53 595.07C478.46 595.72 472.57 597.25 470.5 597.8 423.6 611.97 392.95 617.43 392.95 625.06 392.95 633.9 410.4 633.79 410.4 633.79 381.93 645.79 378.55 647.97 373.32 651.24 364.59 656.69 365.68 665.42 373.32 666.51 368.95 676.33 374.41 679.6 379.86 679.6 378.77 681.78 379.86 690.5 390.77 688.32 390.77 695.96 406.04 693.78 415.85 690.5 424.14 687.78 444.32 679.6 444.32 679.6 492.42 673.05 504.09 657.02 504.09 657.02L480.53 595.07Z" fill="#b66f63" opacity="1" stroke-width="4" stroke="none"></path><path d="M1132.33 344.32C1136.69 342.14 1138.88 333.41 1132.33 331.23 1134.51 322.5 1126.88 321.41 1113.68 323.59L1096.23 326.87C1097.32 315.96 1085.32 320.32 1069.94 327.96 1058.82 333.52 1039.3 345.84 1021.3 357.62L1055.55 407.25C1055.55 407.25 1075.29 404.52 1092.74 385.98 1098.19 383.8 1111.5 379.44 1119.03 376.17 1127.75 372.35 1132.11 368.53 1132.11 365.26 1132.11 361.77 1127.75 360.9 1117.93 363.08 1134.62 355.22 1136.8 349.77 1132.33 344.32Z" fill="#b66f63" opacity="1" stroke-width="4" stroke="none"></path><path d="M793.02 358.82C793.02 358.82 796.4 351.62 794.11 347.59 792.25 344.32 783.09 345.63 783.09 345.63 782.33 344.21 766.73 312.14 743.93 309.41 732.92 307.56 714.27 313.45 699.65 325.12 675.22 344.54 679.04 365.59 685.36 382.93 688.64 391.98 701.29 421.76 710.89 440.73L780.04 425.36 776.87 417.07C798.8 413.79 806.54 405.72 807.96 393.62 809.16 380.42 802.83 369.95 793.02 358.82Z" fill="#b66f63" opacity="1" stroke-width="4" stroke="none"></path><path d="M776.87 416.85C776.87 416.85 766.08 417.83 755.61 414.01L780.58 426.56 776.87 416.85Z" fill="#231f1f" opacity="0.2" stroke-width="4" stroke="none"></path><path d="M1024.13 355.55C985.09 380.96 941.24 412.05 941.24 412.05 941.24 412.05 876.89 420.78 842.97 425.14 807.96 429.61 785.05 437.14 785.05 437.14L779.6 424.05 711 440.52C714.05 446.52 716.67 451.53 718.3 454.59 698.67 464.4 674.57 480.87 642.94 508.14 619.7 528.21 578.58 559.51 578.58 559.51 578.58 559.51 548.92 573.69 476.82 595.72L501.15 658.87C501.15 658.87 581.75 644.8 618.07 628.23 644.35 616.23 690.16 585.69 710.89 569.22L752.88 629.1 873.51 607.61 851.8 511.41C851.8 511.41 883.43 505.74 912.99 499.41 968.73 487.42 993.81 467.78 1009.08 454.7 1026.64 439.64 1043.11 423.07 1058.27 405.51L1024.13 355.55Z" fill="#a45c8c" opacity="1" stroke-width="4" stroke="none"></path><path d="M697.91 319.89C712.41 308.32 731.06 305.6 742.08 307.34 749.72 308.22 757.24 312.8 763.57 318.9 763.57 318.9 757.57 352.17 743.5 371.04 732.26 362.75 709.25 364.93 708.6 382.06 708.05 400.71 737.83 407.47 737.83 407.47 741.32 414.12 764.99 465.6 730.19 497.23 694.09 529.95 652.64 500.51 652.64 500.51L621.78 525.37C621.78 525.37 600.4 504.87 608.91 467.78 621.99 410.96 692.45 405.83 692.45 405.83 692.45 405.83 688.53 397.11 683.51 383.36 677.29 365.91 673.48 339.08 697.91 319.89Z" fill="#221f1f" opacity="1" stroke-width="4" stroke="none"></path><path d="M777.09 417.07C768.91 418.16 762.48 416.19 758.11 415.21" stroke="#231f1f" stroke-width="4" stroke-linecap="round" stroke-linejoin="round" opacity="1" fill="none"></path><path d="M785.16 437.35L789.53 447.17" stroke="#000000" stroke-width="4" stroke-linecap="round" stroke-linejoin="round" opacity="1" fill="none"></path><path d="M851.59 510.54L845.7 485.24" stroke="#000000" stroke-width="4" stroke-linecap="round" stroke-linejoin="round" opacity="1" fill="none"></path><path d="M711 568.78L728.45 555.69" stroke="#000000" stroke-width="4" stroke-linecap="round" stroke-linejoin="round" opacity="1" fill="none"></path><path d="M692.24 404.63L702.82 426.56" stroke="#070707" stroke-width="4" stroke-linecap="round" stroke-linejoin="round" opacity="1" fill="none"></path><path d="M640.75 494.94L651.66 499.96" stroke="#070707" stroke-width="4" stroke-linecap="round" stroke-linejoin="round" opacity="1" fill="none"></path><path d="M654.17 351.84C677.12 351.84 695.73 333.24 695.73 310.29 695.73 287.34 677.12 268.73 654.17 268.73 631.22 268.73 612.61 287.34 612.61 310.29 612.61 333.24 631.22 351.84 654.17 351.84Z" fill="#221f1f" opacity="1" stroke-width="4" stroke="none"></path><path d="M788.3 374.37C788.88 371.05 787.52 368.04 785.26 367.65 783.01 367.25 780.71 369.63 780.13 372.95 779.56 376.27 780.92 379.28 783.17 379.68 785.42 380.07 787.73 377.69 788.3 374.37Z" fill="#231f1f" opacity="1" stroke-width="4" stroke="none"></path><path d="M1024.24 355.22L1058.16 405.4" stroke="#9c9c9c" stroke-width="4" stroke-linecap="round" stroke-linejoin="round" opacity="1" fill="none"></path><path d="M994.8 375.95L1032.97 432.88" stroke="#9c9c9c" stroke-width="4" stroke-linecap="round" stroke-linejoin="round" opacity="1" fill="none"></path><path d="M477.15 595.94L500.82 658.11" stroke="#9c9c9c" stroke-width="4" stroke-linecap="round" stroke-linejoin="round" opacity="1" fill="none"></path><path d="M511.94 584.6L536.59 649.93" stroke="#9c9c9c" stroke-width="4" stroke-linecap="round" stroke-linejoin="round" opacity="1" fill="none"></path><path d="M1096.34 327.96C1090.89 338.86 1081.07 347.59 1081.07 347.59 1081.07 347.59 1082.16 368.42 1064.71 380.31" stroke="#231f1f" stroke-width="4" stroke-linecap="round" stroke-linejoin="round" opacity="1" fill="none"></path><path d="M1131.35 331.23L1091.98 346.5" stroke="#231f1f" stroke-width="4" stroke-linecap="round" stroke-linejoin="round" opacity="1" fill="none"></path><path d="M1130.15 345.41L1093.07 359.7" stroke="#231f1f" stroke-width="4" stroke-linecap="round" stroke-linejoin="round" opacity="1" fill="none"></path><path d="M1117.06 363.95L1094.16 372.68" stroke="#231f1f" stroke-width="4" stroke-linecap="round" stroke-linejoin="round" opacity="1" fill="none"></path><path d="M410.4 633.79C410.4 633.79 429.05 632.7 430.03 632.7 431.12 632.7 449.66 646.88 473.77 637.06" stroke="#231f1f" stroke-width="4" stroke-linecap="round" stroke-linejoin="round" opacity="1" fill="none"></path><path d="M373.21 666.62L423.49 647.97" stroke="#231f1f" stroke-width="4" stroke-linecap="round" stroke-linejoin="round" opacity="1" fill="none"></path><path d="M379.75 679.71L432.21 661.06" stroke="#231f1f" stroke-width="4" stroke-linecap="round" stroke-linejoin="round" opacity="1" fill="none"></path><path d="M390.77 688.43L436.47 673.05" stroke="#231f1f" stroke-width="4" stroke-linecap="round" stroke-linejoin="round" opacity="1" fill="none"></path><path d="M912.01 1145C909.83 1139.87 905.47 1134.31 897.61 1129.73 888.89 1124.6 878.85 1118.93 870.67 1111.08 859.44 1118.39 852.68 1131.04 852.68 1144.45 852.68 1144.67 852.68 1144.78 852.68 1145H810.14C810.14 1122.09 791.49 1103.44 768.58 1103.44 765.75 1103.44 762.8 1103.77 760.08 1104.32 762.37 1117.29 765.42 1131.26 769.35 1145 770.77 1150.12 772.4 1155.25 774.04 1160.27H913.97C914.85 1155.14 914.19 1149.8 912.01 1145Z" fill="#ffffff" opacity="1" stroke-width="4" stroke="none"></path><path d="M795.96 1124.17L856.49 1089.7" stroke="#ffffff" stroke-width="4" stroke-linecap="round" stroke-linejoin="round" opacity="1" fill="none"></path><path d="M857.15 1090.57C857.15 1090.57 899.69 1103.66 900.78 1091.55 901.76 1079.34 869.26 1086.21 857.15 1090.57Z" stroke="#ffffff" stroke-width="4" stroke-linecap="round" stroke-linejoin="round" opacity="1" fill="none"></path><path d="M855.19 1089.7C855.19 1089.7 907.65 1062.65 900.67 1052.62 893.8 1042.47 864.78 1075.85 855.19 1089.7Z" stroke="#ffffff" stroke-width="4" stroke-linecap="round" stroke-linejoin="round" opacity="1" fill="none"></path><path d="M1041.7 795.43C1009.3 747.44 939.06 664.33 872.09 605.32L837.3 611.54V611.43L821.37 614.37 783.85 621.25C783.85 621.35 783.85 621.14 783.85 621.25L751.13 627.24C751.13 627.24 727.68 676.54 742.41 746.35 757.68 818.44 772.84 864.8 764.22 883.99 739.14 939.73 710.67 983.47 710.67 1035.82H752.22 856.93C862.49 991.43 871.11 938.86 873.84 898.28 873.84 897.96 873.84 897.52 873.95 897.19 874.05 896.21 874.05 895.23 874.16 894.25 874.16 893.59 874.27 892.83 874.27 892.17 874.27 891.3 874.38 890.54 874.38 889.67 874.38 888.79 874.49 888.03 874.49 887.16 874.49 886.5 874.49 885.74 874.6 885.09 874.6 884.1 874.71 883.12 874.71 882.25 874.71 881.7 874.71 881.16 874.71 880.61 874.71 879.09 874.71 877.67 874.71 876.25 874.71 852.69 869.36 809.17 862.6 763.91 864.89 765.98 867.18 768.16 869.58 770.23 924.66 819.21 952.04 842.33 959.67 872.87 974.51 932.2 964.04 973.32 1005.7 1027.53L1126.88 946.49C1100.48 897.41 1065.36 830.44 1041.7 795.43Z" fill="#402f5e" opacity="1" stroke-width="4" stroke="none"></path><path d="M776.44 623.43C763.13 678.62 772.73 729.99 794.87 828.26 812.32 905.81 769.78 922.28 765.42 1035.93" stroke="#e7e7e7" stroke-width="4" stroke-linecap="round" stroke-linejoin="round" opacity="1" fill="none"></path><path d="M861.84 763.69L851.91 702.61" stroke="#0c0c0c" stroke-width="4" stroke-linecap="round" stroke-linejoin="round" opacity="1" fill="none"></path><path d="M1233.66 1005.17C1228.97 1002.23 1222.31 1000.04 1213.15 1000.7 1202.03 1001.46 1189.16 1002.44 1176.83 999.61 1169.09 1012.91 1169.85 1029.28 1178.47 1042.04L1178.8 1042.47 1146.29 1064.5C1132.99 1046.62 1108.01 1042.47 1089.69 1054.91 1088.49 1055.78 1087.29 1056.65 1086.2 1057.63 1095.25 1066.8 1105.17 1076.28 1115.86 1085.34 1119.9 1088.72 1124.04 1092.1 1128.41 1095.26L1153.16 1078.47 1190.14 1053.38 1204.97 1043.35 1244.02 1016.95C1241.62 1012.04 1238.02 1008.01 1233.66 1005.17Z" fill="#ffffff" opacity="1" stroke-width="4" stroke="none"></path><path d="M1156.65 988.81C1156.65 988.81 1199.41 976.05 1193.41 965.47 1187.41 954.89 1164.29 978.56 1156.65 988.81Z" stroke="#ffffff" stroke-width="4" stroke-linecap="round" stroke-linejoin="round" opacity="1" fill="none"></path><path d="M1154.36 989.14C1154.36 989.14 1182.94 937.66 1171.6 933.08 1160.47 928.49 1154.91 972.45 1154.36 989.14Z" stroke="#ffffff" stroke-width="4" stroke-linecap="round" stroke-linejoin="round" opacity="1" fill="none"></path><path d="M1122.52 1054.36L1155.67 988.37" stroke="#ffffff" stroke-width="4" stroke-linecap="round" stroke-linejoin="round" opacity="1" fill="none"></path><path d="M751.24 627.14L872.42 605.32" stroke="#000000" stroke-width="4" stroke-linecap="round" stroke-linejoin="round" opacity="1" fill="none"></path><path d="M1090.23 349.88C1097.32 341.37 1099.83 331.88 1100.59 327.85 1100.81 326.98 1099.94 326.1 1099.07 326.32L1096.88 326.76C1096.45 326.87 1096.12 327.08 1096.01 327.41 1091.1 336.9 1083.14 345.41 1081.4 347.26 1081.18 347.48 1081.07 347.81 1081.07 348.13 1081.07 351.08 1080.63 365.69 1069.51 376.49 1068.53 377.47 1069.62 379.11 1070.82 378.67 1092.19 371.04 1090.45 354.24 1089.9 350.86 1089.79 350.53 1089.9 350.1 1090.23 349.88Z" fill="#231f1f" opacity="0.2" stroke-width="4" stroke="none"></path><path d="M410.4 633.79C410.4 633.79 429.05 632.7 430.03 632.7 431.12 632.7 450.21 648.4 474.31 638.59 474.31 638.59 459.37 659.09 430.03 640.66L403.75 636.73 410.4 633.79Z" fill="#231f1f" opacity="0.2" stroke-width="4" stroke="none"></path><path d="M774.58 624.19L751.24 627.14C751.24 627.14 727.79 676.43 742.52 746.24 757.79 818.33 772.95 864.69 764.33 883.89 796.83 824.77 732.16 730.75 774.58 624.19Z" fill="#0c0c0c" opacity="0.2" stroke-width="4" stroke="none"></path><path d="M847.88 495.82L851.7 511.41C851.7 511.41 883.33 505.85 912.88 499.52L847.88 495.82Z" fill="#000000" opacity="0.2" stroke-width="4" stroke="none"></path><path d="M767.93 346.93C771.64 344.1 775.89 348.35 773.06 352.06 769.35 354.9 765.09 350.75 767.93 346.93Z" fill="#000000" opacity="1" stroke-width="4" stroke="none"></path></g><g><path d="M281.75 893.86L264.45 919.77 295.96 906.91 281.75 893.86Z" fill="#ffffff" opacity="1" stroke-width="4" stroke="none"></path><path d="M281.75 893.86L264.45 919.77 295.96 906.91 281.75 893.86Z" fill="#515151" opacity="0.2" stroke-width="4" stroke="none"></path><path d="M281.75 893.86L300.01 934.18 359.68 863.25C359.81 863.12 359.68 862.93 359.49 863L281.75 893.86Z" fill="#ffffff" opacity="1" stroke-width="4" stroke="none"></path><path d="M246.51 868.65L281.75 893.86 359.55 863C359.62 862.93 359.62 862.8 359.49 862.8L246.51 868.65Z" fill="#ffffff" opacity="1" stroke-width="4" stroke="none"></path><path d="M281.75 893.86L289.4 910.77" stroke="#515151" stroke-width="4" stroke-linecap="round" stroke-linejoin="round" opacity="1" fill="none"></path><path d="M359.49 863L281.75 893.86" stroke="#515151" stroke-width="4" stroke-linecap="round" stroke-linejoin="round" opacity="1" fill="none"></path></g></svg>