<svg xmlns="http://www.w3.org/2000/svg" height="1296" width="1546" version="1.1" xmlns:xlink="http://www.w3.org/1999/xlink" xmlns:svgjs="http://svgjs.com/svgjs"><rect fill="#ffffff" width="1546" height="1296"></rect><g><path d="M1293.72 1015.71C1292.19 1014.21 1290.96 1012.43 1290.12 1010.47 1289.27 1008.5 1288.83 1006.39 1288.8 1004.25 1288.78 1002.11 1289.17 999.99 1289.97 998 1290.77 996.02 1291.95 994.21 1293.45 992.68 1294.94 991.16 1296.73 989.94 1298.7 989.1 1300.67 988.27 1302.78 987.83 1304.92 987.81 1307.06 987.79 1309.18 988.2 1311.16 989 1313.14 989.81 1314.95 991 1316.47 992.5 1316.55 992.57 1316.62 992.65 1316.7 992.72L1319.82 995.85 1322.87 992.72C1324.38 991.19 1326.17 989.97 1328.15 989.13 1330.13 988.29 1332.25 987.86 1334.4 987.84 1336.55 987.83 1338.68 988.25 1340.66 989.07 1342.65 989.88 1344.46 991.09 1345.97 992.6 1347.49 994.12 1348.7 995.93 1349.51 997.92 1350.33 999.9 1350.75 1002.03 1350.73 1004.18 1350.72 1006.33 1350.29 1008.45 1349.45 1010.43 1348.61 1012.41 1347.39 1014.2 1345.85 1015.71L1319.96 1041.6 1293.72 1015.71Z" fill="#a99ea7" opacity="1" stroke-width="4" stroke="none"></path></g><g><path d="M1121.09 201.8V207.46" stroke="#ffffff" stroke-width="4" stroke-linecap="round" stroke-linejoin="round" opacity="1" fill="none"></path><path d="M1121.09 223.52V229.18" stroke="#ffffff" stroke-width="4" stroke-linecap="round" stroke-linejoin="round" opacity="1" fill="none"></path><path d="M1134.78 215.49H1129.12" stroke="#ffffff" stroke-width="4" stroke-linecap="round" stroke-linejoin="round" opacity="1" fill="none"></path><path d="M1113.06 215.49H1107.4" stroke="#ffffff" stroke-width="4" stroke-linecap="round" stroke-linejoin="round" opacity="1" fill="none"></path><path d="M1111.42 205.82L1115.4 209.8" stroke="#ffffff" stroke-width="4" stroke-linecap="round" stroke-linejoin="round" opacity="1" fill="none"></path><path d="M1126.78 221.18L1130.77 225.17" stroke="#ffffff" stroke-width="4" stroke-linecap="round" stroke-linejoin="round" opacity="1" fill="none"></path><path d="M1130.77 205.82L1126.78 209.8" stroke="#ffffff" stroke-width="4" stroke-linecap="round" stroke-linejoin="round" opacity="1" fill="none"></path><path d="M1115.4 221.18L1111.42 225.17" stroke="#ffffff" stroke-width="4" stroke-linecap="round" stroke-linejoin="round" opacity="1" fill="none"></path></g><g><path d="M1309.19 716.5V750.49" stroke="#ffffff" stroke-width="4" stroke-linecap="round" stroke-linejoin="round" opacity="1" fill="none"></path><path d="M1309.19 846.99V880.99" stroke="#ffffff" stroke-width="4" stroke-linecap="round" stroke-linejoin="round" opacity="1" fill="none"></path><path d="M1391.44 798.74H1357.44" stroke="#ffffff" stroke-width="4" stroke-linecap="round" stroke-linejoin="round" opacity="1" fill="none"></path><path d="M1260.94 798.74H1226.95" stroke="#ffffff" stroke-width="4" stroke-linecap="round" stroke-linejoin="round" opacity="1" fill="none"></path><path d="M1251.07 740.63L1275.02 764.57" stroke="#ffffff" stroke-width="4" stroke-linecap="round" stroke-linejoin="round" opacity="1" fill="none"></path><path d="M1343.37 832.92L1367.31 856.86" stroke="#ffffff" stroke-width="4" stroke-linecap="round" stroke-linejoin="round" opacity="1" fill="none"></path><path d="M1367.31 740.63L1343.37 764.57" stroke="#ffffff" stroke-width="4" stroke-linecap="round" stroke-linejoin="round" opacity="1" fill="none"></path><path d="M1275.02 832.92L1251.07 856.86" stroke="#ffffff" stroke-width="4" stroke-linecap="round" stroke-linejoin="round" opacity="1" fill="none"></path></g><g><path d="M302.7 1003.6V1010.09" stroke="#a45c8c" stroke-width="4" stroke-linecap="round" stroke-linejoin="round" opacity="1" fill="none"></path><path d="M302.7 1028.51V1035" stroke="#a45c8c" stroke-width="4" stroke-linecap="round" stroke-linejoin="round" opacity="1" fill="none"></path><path d="M318.4 1019.3H311.91" stroke="#a45c8c" stroke-width="4" stroke-linecap="round" stroke-linejoin="round" opacity="1" fill="none"></path><path d="M293.49 1019.3H287" stroke="#a45c8c" stroke-width="4" stroke-linecap="round" stroke-linejoin="round" opacity="1" fill="none"></path><path d="M291.61 1008.21L296.18 1012.78" stroke="#a45c8c" stroke-width="4" stroke-linecap="round" stroke-linejoin="round" opacity="1" fill="none"></path><path d="M309.23 1025.83L313.8 1030.4" stroke="#a45c8c" stroke-width="4" stroke-linecap="round" stroke-linejoin="round" opacity="1" fill="none"></path><path d="M313.8 1008.21L309.23 1012.78" stroke="#a45c8c" stroke-width="4" stroke-linecap="round" stroke-linejoin="round" opacity="1" fill="none"></path><path d="M296.18 1025.83L291.61 1030.4" stroke="#a45c8c" stroke-width="4" stroke-linecap="round" stroke-linejoin="round" opacity="1" fill="none"></path></g><g><path d="M1150.7 1118.1C1160.58 1118.1 1168.6 1110.09 1168.6 1100.2 1168.6 1090.31 1160.58 1082.3 1150.7 1082.3 1140.81 1082.3 1132.8 1090.31 1132.8 1100.2 1132.8 1110.09 1140.81 1118.1 1150.7 1118.1Z" fill="#ff9961" opacity="1" stroke-width="4" stroke="none"></path></g><g><path d="M160.29 479.2V486.68" stroke="#ff9961" stroke-width="4" stroke-linecap="round" stroke-linejoin="round" opacity="1" fill="none"></path><path d="M160.29 507.91V515.39" stroke="#ff9961" stroke-width="4" stroke-linecap="round" stroke-linejoin="round" opacity="1" fill="none"></path><path d="M178.39 497.3H170.91" stroke="#ff9961" stroke-width="4" stroke-linecap="round" stroke-linejoin="round" opacity="1" fill="none"></path><path d="M149.68 497.3H142.2" stroke="#ff9961" stroke-width="4" stroke-linecap="round" stroke-linejoin="round" opacity="1" fill="none"></path><path d="M147.51 484.51L152.77 489.78" stroke="#ff9961" stroke-width="4" stroke-linecap="round" stroke-linejoin="round" opacity="1" fill="none"></path><path d="M167.81 504.82L173.08 510.08" stroke="#ff9961" stroke-width="4" stroke-linecap="round" stroke-linejoin="round" opacity="1" fill="none"></path><path d="M173.08 484.51L167.81 489.78" stroke="#ff9961" stroke-width="4" stroke-linecap="round" stroke-linejoin="round" opacity="1" fill="none"></path><path d="M152.77 504.82L147.51 510.08" stroke="#ff9961" stroke-width="4" stroke-linecap="round" stroke-linejoin="round" opacity="1" fill="none"></path></g><g><path d="M232.73 598.56V608.26" stroke="#ffffff" stroke-width="4" stroke-linecap="round" stroke-linejoin="round" opacity="1" fill="none"></path><path d="M232.73 635.78V645.48" stroke="#ffffff" stroke-width="4" stroke-linecap="round" stroke-linejoin="round" opacity="1" fill="none"></path><path d="M256.19 622.02H246.49" stroke="#ffffff" stroke-width="4" stroke-linecap="round" stroke-linejoin="round" opacity="1" fill="none"></path><path d="M218.97 622.02H209.27" stroke="#ffffff" stroke-width="4" stroke-linecap="round" stroke-linejoin="round" opacity="1" fill="none"></path><path d="M216.15 605.44L222.98 612.27" stroke="#ffffff" stroke-width="4" stroke-linecap="round" stroke-linejoin="round" opacity="1" fill="none"></path><path d="M242.48 631.77L249.31 638.6" stroke="#ffffff" stroke-width="4" stroke-linecap="round" stroke-linejoin="round" opacity="1" fill="none"></path><path d="M249.31 605.44L242.48 612.27" stroke="#ffffff" stroke-width="4" stroke-linecap="round" stroke-linejoin="round" opacity="1" fill="none"></path><path d="M222.98 631.77L216.15 638.6" stroke="#ffffff" stroke-width="4" stroke-linecap="round" stroke-linejoin="round" opacity="1" fill="none"></path></g><g><path d="M391.75 752.57L317.84 729.94 340.69 758.36 324.78 791.12 391.75 752.57Z" fill="#ffffff" opacity="0.2" stroke-width="4" stroke="none"></path><path d="M114.93 778.03C122.74 791.91 150.58 814.55 166.27 796.32 181.96 778.1 182.4 720.83 160.2 670.13 141.9 628.34 121 647.5 135.83 691.03 148.7 729 181.09 776.36 227.23 782.44 273.37 788.51 267.58 725.6 261.15 704.99 256.81 691.03 245.45 687.56 248.93 701.52 252.4 715.47 281.97 752.86 340.33 744.18" stroke="#ffffff" stroke-width="4" stroke-linecap="round" stroke-linejoin="round" opacity="1" fill="none"></path><path d="M391.75 738.33L317.84 715.69 340.69 744.11 324.78 776.87 391.75 738.33Z" fill="#ffffff" opacity="1" stroke-width="4" stroke="none"></path></g><g><path d="M1126.57 346.12L1010.09 346.12C995.8 346.12 984.13 334.56 984.13 320.16 984.13 305.88 995.69 294.21 1010.09 294.21L1152.97 294.21C1172.38 294.21 1188.09 309.91 1188.09 329.33 1188.09 348.74 1172.38 364.44 1152.97 364.44L1046.95 364.44" stroke="#ffffff" stroke-width="4" stroke-linecap="round" stroke-linejoin="round" opacity="1" fill="none"></path></g><g><path d="M929.58 266.64C947.63 253.84 950.32 238.42 944.64 222.99 939.38 208.7 926.59 201.89 923.6 213.19 920.61 224.49 938.66 248.58 965.75 247.8 992.83 247.03 998.15 203.38 971.79 155.97 945.42 108.55 911.94 116.57 924.2 148.31 936.45 180.06 986.32 231.06 1026.02 218.45 1071.22 204.16 1053.88 121.29 990.62 71.61" stroke="#a99ea7" stroke-width="4" stroke-linecap="round" stroke-linejoin="round" opacity="1" fill="none"></path></g><g><path d="M990.22 401.1L1060.28 401.16C1064.08 401.16 1067.84 401.9 1071.35 403.35 1074.86 404.81 1078.05 406.94 1080.73 409.64 1083.41 412.32 1085.54 415.52 1086.98 419.03 1088.42 422.54 1089.16 426.31 1089.14 430.11L1089.08 500.17C1089.09 503.97 1088.34 507.73 1086.89 511.24 1085.43 514.75 1083.3 517.94 1080.61 520.62 1077.92 523.3 1074.73 525.43 1071.21 526.87 1067.7 528.31 1063.93 529.05 1060.14 529.03L990.08 528.97C986.28 528.98 982.52 528.23 979.01 526.78 975.49 525.32 972.31 523.19 969.62 520.5 966.94 517.81 964.82 514.62 963.38 511.1 961.93 507.59 961.19 503.82 961.21 500.03L961.27 429.97C961.31 422.31 964.37 414.98 969.8 409.58 975.22 404.17 982.56 401.12 990.22 401.1V401.1Z" fill="#ff9961" opacity="1" stroke-width="4" stroke="none"></path><path d="M1011.37 447.78L992.95 466.2" stroke="#020101" stroke-width="4" stroke-linecap="round" stroke-linejoin="round" opacity="1" fill="none"></path><path d="M992.95 447.78L1011.37 466.2" stroke="#020101" stroke-width="4" stroke-linecap="round" stroke-linejoin="round" opacity="1" fill="none"></path><path d="M1058.23 447.81L1039.81 466.22" stroke="#020101" stroke-width="4" stroke-linecap="round" stroke-linejoin="round" opacity="1" fill="none"></path><path d="M1039.81 447.8L1058.31 466.29" stroke="#020101" stroke-width="4" stroke-linecap="round" stroke-linejoin="round" opacity="1" fill="none"></path><path d="M1017.51 487.65L1033.77 487.61" stroke="#020101" stroke-width="4" stroke-linecap="round" stroke-linejoin="round" opacity="1" fill="none"></path></g><g><path d="M471.94 745.08H740.2C756.31 745.08 769.36 758.14 769.36 774.25V991.65C769.36 1007.76 756.31 1020.82 740.2 1020.82H471.94C455.83 1020.82 442.77 1007.76 442.77 991.65V774.25C442.77 758.14 455.83 745.08 471.94 745.08Z" fill="#ff9961" opacity="1" stroke-width="4" stroke="none"></path><path d="M549.32 838.15H504.05V963.02H549.32V838.15Z" fill="#ffffff" opacity="1" stroke-width="4" stroke="none"></path><path d="M628.81 886.9H583.54V962.91H628.81V886.9Z" fill="#a45c8c" opacity="1" stroke-width="4" stroke="none"></path><path d="M708.3 815.62H663.03V963.02H708.3V815.62Z" fill="#ffffff" opacity="1" stroke-width="4" stroke="none"></path><path d="M504.05 726.13V758.24" stroke="#000000" stroke-width="4" stroke-linecap="round" stroke-linejoin="round" opacity="1" fill="none"></path><path d="M708.3 726.55V758.77" stroke="#000000" stroke-width="4" stroke-linecap="round" stroke-linejoin="round" opacity="1" fill="none"></path></g><g><path d="M330.72 602.43C321.84 602.41 313.33 598.88 307.05 592.6 300.77 586.32 297.23 577.81 297.23 568.93V251.47C297.23 242.59 300.77 234.08 307.05 227.8 313.33 221.52 321.84 217.98 330.72 217.97H742.6C751.48 217.98 759.99 221.52 766.27 227.8 772.55 234.08 776.08 242.59 776.09 251.47V568.93C776.08 577.81 772.55 586.32 766.27 592.6 759.99 598.88 751.48 602.41 742.6 602.43H330.72Z" fill="#ffffff" opacity="1" stroke-width="4" stroke="none"></path><path d="M297.25 289.93H777.57" stroke="#ffffff" stroke-width="4" opacity="1" fill="none"></path><path d="M332.47 265.95C339.5 265.95 345.21 260.25 345.21 253.22 345.21 246.18 339.5 240.48 332.47 240.48 325.43 240.48 319.73 246.18 319.73 253.22 319.73 260.25 325.43 265.95 332.47 265.95Z" fill="#ffffff" opacity="1" stroke-width="4" stroke="none"></path><path d="M371.07 265.95C378.11 265.95 383.81 260.25 383.81 253.22 383.81 246.18 378.11 240.48 371.07 240.48 364.04 240.48 358.33 246.18 358.33 253.22 358.33 260.25 364.04 265.95 371.07 265.95Z" fill="#ffffff" opacity="1" stroke-width="4" stroke="none"></path><path d="M409.67 265.95C416.71 265.95 422.41 260.25 422.41 253.22 422.41 246.18 416.71 240.48 409.67 240.48 402.64 240.48 396.93 246.18 396.93 253.22 396.93 260.25 402.64 265.95 409.67 265.95Z" fill="#ffffff" opacity="1" stroke-width="4" stroke="none"></path></g><g><path d="M526.13 394.46L594.59 449.64" stroke="#ff9961" stroke-width="4" stroke-linecap="round" stroke-linejoin="round" opacity="1" fill="none"></path><path d="M487 443.24L555.49 497.84" stroke="#ff9961" stroke-width="4" stroke-linecap="round" stroke-linejoin="round" opacity="1" fill="none"></path><path d="M498.11 411.93L583.46 480.29" stroke="#ff9961" stroke-width="4" stroke-linecap="round" stroke-linejoin="round" opacity="1" fill="none"></path><path d="M560.89 360.72L619.83 408.02" stroke="#ff9961" stroke-width="4" stroke-linecap="round" stroke-linejoin="round" opacity="1" fill="none"></path><path d="M462.62 483.16L521.56 530.46" stroke="#ff9961" stroke-width="4" stroke-linecap="round" stroke-linejoin="round" opacity="1" fill="none"></path><path d="M540.78 500.79C570.97 500.79 595.42 476.32 595.42 446.15 595.42 415.97 570.97 391.51 540.78 391.51 510.61 391.51 486.15 415.97 486.15 446.15 486.15 476.32 510.61 500.79 540.78 500.79Z" stroke="#a45c8c" stroke-width="4" stroke-linecap="round" stroke-linejoin="round" opacity="1" fill="none"></path><path d="M651.98 394.86C633.07 418.39 579.55 406.83 575.16 403.32 570.78 399.81 547.8 350.03 566.71 326.42" stroke="#a45c8c" stroke-width="4" stroke-linecap="round" stroke-linejoin="round" opacity="1" fill="none"></path><path d="M429.83 497.04C448.74 473.51 502.15 485.19 506.42 488.81 510.78 492.28 534 541.87 515.1 565.4" stroke="#a45c8c" stroke-width="4" stroke-linecap="round" stroke-linejoin="round" opacity="1" fill="none"></path></g><g><path d="M320.28 399.94C320.16 386.94 317.33 374.11 311.95 362.27 306.59 350.44 298.8 339.85 289.09 331.2 287.91 346.2 294.82 357.75 287.91 368.21 284.46 342.84 271.73 342.84 263.64 313.93 240.54 346.3 261.27 368.21 248.64 393.67 248.64 393.67 240.54 383.3 242.82 357.84 231.27 365.93 222 382.21 222 400.03 222.02 413.06 227.21 425.54 236.43 434.74 245.66 443.94 258.15 449.1 271.18 449.08 284.21 449.07 296.7 443.89 305.91 434.67 315.11 425.46 320.28 412.97 320.28 399.94Z" fill="#402f5e" opacity="1" stroke-width="4" stroke="none"></path></g><g><path d="M993.5 616.9H1217.6C1229.1 616.9 1238.5 626.3 1238.5 637.8V894.7C1238.5 906.2 1229.1 915.6 1217.6 915.6H993.5C982 915.6 972.6 906.2 972.6 894.7V637.8C972.6 626.2 982 616.9 993.5 616.9Z" fill="#ffffff" opacity="1" stroke-width="4" stroke="none"></path><path d="M1020.3 682.9L1029.5 692.1 1044.4 677.3" stroke="#ffffff" stroke-width="4" stroke-linecap="round" stroke-linejoin="round" opacity="1" fill="none"></path><path d="M1038.22 772.62C1042.85 769.41 1044 763.06 1040.8 758.43 1037.59 753.79 1031.24 752.64 1026.61 755.85 1021.97 759.05 1020.82 765.41 1024.02 770.04 1027.23 774.67 1033.59 775.83 1038.22 772.62Z" stroke="#ffffff" stroke-width="4" stroke-linecap="round" stroke-linejoin="round" opacity="1" fill="none"></path><path d="M1038.21 852.02C1042.84 848.81 1044 842.46 1040.79 837.83 1037.59 833.2 1031.23 832.04 1026.6 835.25 1021.97 838.45 1020.81 844.81 1024.02 849.44 1027.23 854.07 1033.58 855.23 1038.21 852.02Z" stroke="#ffffff" stroke-width="4" stroke-linecap="round" stroke-linejoin="round" opacity="1" fill="none"></path><path d="M1073.3 686.6H1166.3" stroke="#a45c8c" stroke-width="4" stroke-linecap="round" stroke-linejoin="round" opacity="1" fill="none"></path><path d="M1073.3 764.3H1166.3" stroke="#a45c8c" stroke-width="4" stroke-linecap="round" stroke-linejoin="round" opacity="1" fill="none"></path><path d="M1073.3 843H1166.3" stroke="#a45c8c" stroke-width="4" stroke-linecap="round" stroke-linejoin="round" opacity="1" fill="none"></path></g><g><path d="M1310.39 836.4V844.91" stroke="#a45c8c" stroke-width="4" stroke-linecap="round" stroke-linejoin="round" opacity="1" fill="none"></path><path d="M1310.39 869.06V877.57" stroke="#a45c8c" stroke-width="4" stroke-linecap="round" stroke-linejoin="round" opacity="1" fill="none"></path><path d="M1330.97 856.99H1322.46" stroke="#a45c8c" stroke-width="4" stroke-linecap="round" stroke-linejoin="round" opacity="1" fill="none"></path><path d="M1298.31 856.99H1289.8" stroke="#a45c8c" stroke-width="4" stroke-linecap="round" stroke-linejoin="round" opacity="1" fill="none"></path><path d="M1295.84 842.44L1301.83 848.43" stroke="#a45c8c" stroke-width="4" stroke-linecap="round" stroke-linejoin="round" opacity="1" fill="none"></path><path d="M1318.94 865.54L1324.93 871.53" stroke="#a45c8c" stroke-width="4" stroke-linecap="round" stroke-linejoin="round" opacity="1" fill="none"></path><path d="M1324.93 842.44L1318.94 848.43" stroke="#a45c8c" stroke-width="4" stroke-linecap="round" stroke-linejoin="round" opacity="1" fill="none"></path><path d="M1301.83 865.54L1295.84 871.53" stroke="#a45c8c" stroke-width="4" stroke-linecap="round" stroke-linejoin="round" opacity="1" fill="none"></path></g><g><path d="M1364 632.23C1362.75 632.23 1361.53 631.84 1360.5 631.13L1315.34 597.85 1324.23 547.09 1379.91 514.57C1381.04 513.83 1382.39 513.55 1383.72 513.77 1384.46 513.9 1385.17 514.18 1385.8 514.59 1386.44 515 1386.98 515.53 1387.41 516.15 1387.84 516.77 1388.15 517.47 1388.3 518.21 1388.46 518.94 1388.48 519.71 1388.34 520.45L1388.32 520.57 1369.5 627.53C1369.34 628.39 1369 629.21 1368.5 629.93 1368 630.65 1367.32 631.24 1366.54 631.64 1365.75 632.04 1364.88 632.25 1364 632.23V632.23Z" fill="#ff9961" opacity="1" stroke-width="4" stroke="none"></path><path d="M1165.03 646.39C1160.08 646.52 1155.15 645.55 1150.61 643.54 1146.08 641.54 1142.05 638.54 1138.81 634.78 1135.6 630.82 1133.32 626.19 1132.13 621.23 1130.93 616.27 1130.85 611.11 1131.9 606.12L1150.91 498.36 1281.11 498.32C1286.1 498.17 1291.06 499.14 1295.63 501.16 1300.2 503.18 1304.26 506.2 1307.51 509.99 1310.71 513.99 1312.97 518.65 1314.13 523.63 1315.3 528.61 1315.33 533.79 1314.24 538.79L1313.45 543.74 1303.34 601.18 1295.42 646.39 1165.03 646.39Z" fill="#ff9961" opacity="1" stroke-width="4" stroke="none"></path></g><g><path d="M1331.52 416.88H1278.27C1268.86 416.89 1259.84 420.63 1253.18 427.28 1246.53 433.94 1242.79 442.96 1242.78 452.37 1242.78 460.81 1245.79 468.96 1251.26 475.38 1256.72 481.79 1264.3 486.05 1272.62 487.39V505.62L1298.65 487.87H1331.52C1340.93 487.86 1349.96 484.12 1356.61 477.46 1363.27 470.81 1367.01 461.79 1367.02 452.37 1367.02 447.71 1366.1 443.09 1364.32 438.79 1362.54 434.48 1359.92 430.57 1356.63 427.27 1353.33 423.97 1349.41 421.36 1345.11 419.57 1340.8 417.79 1336.18 416.87 1331.52 416.88Z" fill="#a45c8c" opacity="1" stroke-width="4" stroke="none"></path><path d="M1284.96 456.67C1287.64 456.67 1289.82 454.5 1289.82 451.82 1289.82 449.14 1287.64 446.96 1284.96 446.96 1282.28 446.96 1280.11 449.14 1280.11 451.82 1280.11 454.5 1282.28 456.67 1284.96 456.67Z" fill="#ffffff" opacity="1" stroke-width="4" stroke="none"></path><path d="M1304.86 456.67C1307.54 456.67 1309.71 454.5 1309.71 451.82 1309.71 449.14 1307.54 446.96 1304.86 446.96 1302.18 446.96 1300 449.14 1300 451.82 1300 454.5 1302.18 456.67 1304.86 456.67Z" fill="#ffffff" opacity="1" stroke-width="4" stroke="none"></path><path d="M1324.83 456.67C1327.52 456.67 1329.69 454.5 1329.69 451.82 1329.69 449.14 1327.52 446.96 1324.83 446.96 1322.15 446.96 1319.98 449.14 1319.98 451.82 1319.98 454.5 1322.15 456.67 1324.83 456.67Z" fill="#ffffff" opacity="1" stroke-width="4" stroke="none"></path><path d="M1329.61 419.26C1329.7 411.51 1331.4 403.87 1334.6 396.81 1337.81 389.75 1342.45 383.44 1348.23 378.28 1348.95 387.19 1344.81 394.11 1348.95 400.32 1351.02 385.2 1358.58 385.2 1363.44 368.01 1377.2 387.27 1364.79 400.32 1372.35 415.52 1372.35 415.52 1377.12 409.32 1375.77 394.19 1382.62 398.97 1388.19 408.76 1388.19 419.34 1388.19 423.19 1387.43 427.01 1385.95 430.56 1384.48 434.12 1382.32 437.35 1379.59 440.07 1376.87 442.79 1373.64 444.95 1370.08 446.42 1366.52 447.89 1362.71 448.64 1358.86 448.63 1355.01 448.63 1351.2 447.87 1347.64 446.39 1344.09 444.91 1340.86 442.74 1338.15 440.01 1335.43 437.29 1333.28 434.05 1331.81 430.49 1330.35 426.93 1329.6 423.11 1329.61 419.26Z" fill="#402f5e" opacity="1" stroke-width="4" stroke="none"></path></g><g><path d="M457.93 1077.36C493.18 1077.36 521.75 1048.79 521.75 1013.55 521.75 978.31 493.18 949.74 457.93 949.74 422.69 949.74 394.12 978.31 394.12 1013.55 394.12 1048.79 422.69 1077.36 457.93 1077.36Z" fill="#a45c8c" opacity="1" stroke-width="4" stroke="none"></path><path d="M457.93 1051.98C479.16 1051.98 496.36 1034.77 496.36 1013.55 496.36 992.32 479.16 975.12 457.93 975.12 436.71 975.12 419.51 992.32 419.51 1013.55 419.51 1034.77 436.71 1051.98 457.93 1051.98Z" fill="#deabcd" opacity="1" stroke-width="4" stroke="none"></path><path d="M470.98 992.94L457.93 1013.55 467.56 1025.88" stroke="#000000" stroke-width="4" stroke-linecap="round" stroke-linejoin="round" opacity="1" fill="none"></path></g><g><path d="M502.92 792.1C499.61 793.42 496.2 794.48 492.72 795.27 476.57 798.92 459.64 796.35 445.29 788.08 430.94 779.82 420.23 766.45 415.28 750.64 410.34 734.84 411.52 717.75 418.6 702.78 425.67 687.81 438.13 676.05 453.48 669.84 456.79 668.51 460.2 667.45 463.68 666.66 479.83 663.01 496.76 665.58 511.11 673.85 525.47 682.12 536.18 695.48 541.12 711.28 546.07 727.09 544.88 744.18 537.8 759.15 530.73 774.12 518.27 785.88 502.92 792.1Z" fill="#a99ea7" opacity="1" stroke-width="4" stroke="none"></path><path d="M508.1 756.03C500.02 752.06 490.87 750.77 482.01 752.35 473.15 753.93 465.02 758.29 458.8 764.8L458.76 764.76C464.98 758.23 473.13 753.88 482.01 752.29 490.88 750.71 500.03 752 508.13 755.97L508.1 756.03Z" stroke="#ffffff" stroke-width="4" stroke-linecap="round" stroke-linejoin="round" opacity="1" fill="none"></path><path d="M491.12 724.7L491.07 724.65 515.64 707.81 515.68 707.86 491.12 724.7Z" stroke="#ffffff" stroke-width="4" stroke-linecap="round" stroke-linejoin="round" opacity="1" fill="none"></path><path d="M501.9 733.27C501.55 733.41 501.16 733.47 500.78 733.45 500.39 733.42 500.02 733.32 499.68 733.13 499.35 732.95 499.05 732.69 498.83 732.38 498.6 732.07 498.44 731.71 498.37 731.33L496.69 721.71 501.33 718.78 503.42 730.48C503.52 731.05 503.43 731.63 503.15 732.15 502.88 732.65 502.44 733.05 501.9 733.27H501.9Z" fill="#ffffff" stroke="#ffffff" stroke-width="4" stroke-linecap="round" stroke-linejoin="round" opacity="1"></path><path d="M463.87 729.53L434.9 722.23 434.92 722.18 463.9 729.48 463.87 729.53Z" stroke="#ffffff" stroke-width="4" stroke-linecap="round" stroke-linejoin="round" opacity="1" fill="none"></path><path d="M457.73 741.12C457.33 741.28 456.89 741.34 456.45 741.3 456.02 741.25 455.61 741.09 455.24 740.85 454.97 740.66 454.73 740.41 454.55 740.12 454.38 739.83 454.27 739.52 454.21 739.18L452.17 727.51 457.56 728.68 459.26 738.33C459.36 738.9 459.27 739.48 458.99 739.99 458.72 740.5 458.27 740.9 457.73 741.12Z" fill="#ffffff" stroke="#ffffff" stroke-width="4" stroke-linecap="round" stroke-linejoin="round" opacity="1"></path></g><g><path d="M878.98 229.23C928.25 188.28 981.51 248.89 934.62 292.43 885.36 333.37 832.1 272.88 878.98 229.23Z" fill="#000000" opacity="1" stroke-width="4" stroke="none"></path><path d="M798.93 811.21C798.71 810.99 711.64 725.43 725.68 874.3 732.92 951.01 759.06 1079.89 736.81 1104.41 733.35 1108.3 729.36 1111.54 725.47 1114.35 706.13 1128.4 695 1129.59 693.16 1158.11 693.16 1158.21 693.16 1158.21 693.27 1158.21L812.43 1151.95C812.87 1151.73 830.48 1143.63 835.01 1108.63 837.39 1090.05 839.55 1066.17 840.09 1038.51 840.63 1012.26 840.09 991.19 838.9 973.48 835.34 921.84 826.37 899.47 823.88 865.66 821.29 828.82 799.04 811.32 798.93 811.21Z" fill="#faa378" opacity="1" stroke-width="4" stroke="none"></path><path d="M831.56 869.98C843.12 946.14 875.74 1079.89 853.49 1104.41 850.03 1108.2 846.14 1111.44 842.25 1114.25 822.91 1128.29 824.43 1129.48 822.59 1158.11 822.59 1158.21 822.59 1158.21 822.7 1158.21L929.76 1155.19C929.76 1155.19 929.87 1155.19 929.87 1155.08 934.62 1137.15 949.42 1126.45 952.12 1108.09 958.28 1065.52 959.14 1021.34 953.31 976.61 951.47 962.78 949.1 948.74 946.07 934.69 941.97 915.79 904.69 896.02 898.21 876.79 880.93 793.06 808.87 719.81 831.56 869.98Z" fill="#faa378" opacity="1" stroke-width="4" stroke="none"></path><path d="M733.03 934.8L838.69 973.37C838.79 973.37 838.79 973.37 838.79 973.26 835.23 921.84 826.26 899.26 823.88 865.66 821.29 828.71 718.88 785.71 733.03 934.8 732.92 934.8 732.92 934.8 733.03 934.8Z" fill="#000000" opacity="0.2" stroke-width="4" stroke="none"></path><path d="M843.12 934.91L953.2 976.61C953.31 976.61 953.31 976.61 953.31 976.5 950.5 955.65 948.56 947.12 946.07 934.8 934.08 920.86 913.45 929.51 909.66 915.89 909.66 915.79 909.56 915.79 909.56 915.79L843.22 934.69C843.01 934.69 843.01 934.91 843.12 934.91Z" fill="#000000" opacity="0.2" stroke-width="4" stroke="none"></path><path d="M942.29 1107.65C919.06 1107.65 899.29 1124.62 895.84 1147.52 895.84 1147.52 895.84 1147.63 895.73 1147.63H864.61C864.61 1147.63 864.51 1147.63 864.51 1147.52 862.45 1133.8 854.35 1121.59 842.36 1114.35H842.25C826.8 1125.59 809.52 1131.21 802.28 1147.63 800.33 1152.27 799.15 1157.13 798.93 1162.1 798.93 1162.21 798.93 1162.21 799.04 1162.21H941.21C941.21 1162.21 941.32 1162.21 941.32 1162.1 944.88 1149.57 949.2 1129.69 952.12 1108.2 952.12 1108.09 952.12 1108.09 952.01 1108.09 948.99 1107.55 945.53 1107.65 942.29 1107.65Z" fill="#a99ea7" opacity="1" stroke-width="4" stroke="none"></path><path d="M825.51 1107.65C802.28 1107.65 782.51 1124.62 779.05 1147.52 779.05 1147.52 779.05 1147.63 778.94 1147.63H747.83C747.83 1147.63 747.72 1147.63 747.72 1147.52 745.67 1133.8 737.57 1121.59 725.57 1114.35H725.47C710.02 1125.59 692.84 1131.21 685.6 1147.63 683.66 1152.27 682.47 1157.13 682.25 1162.1 682.25 1162.21 682.25 1162.21 682.36 1162.21H824.53C824.53 1162.21 824.64 1162.21 824.64 1162.1 828.21 1149.57 832.2 1130.13 835.12 1108.74 835.12 1108.63 835.12 1108.63 835.01 1108.63 831.88 1107.98 828.75 1107.65 825.51 1107.65Z" fill="#a99ea7" opacity="1" stroke-width="4" stroke="none"></path><path d="M872.61 342.34C875.42 322.68 880.06 299.67 850.14 284.76 832.31 275.9 815.13 276.33 804.01 280.76 795.26 283.68 787.69 285.62 782.4 293.83 773.65 307.23 769.33 322.79 769 324.41 769 324.41 769 324.52 768.9 324.52 768.03 324.62 758.96 325.27 757.88 328.94 756.47 333.48 762.41 339.1 763.06 339.64V339.75C759.28 350.44 753.99 364.27 757.23 374.21 760.14 383.07 768.68 392.58 792.23 391.17 792.34 391.17 792.34 391.28 792.34 391.28L788.99 407.05C788.99 407.16 788.99 407.16 789.1 407.16H862.56C862.56 407.16 862.67 407.16 862.67 407.05 868.83 386.96 870.99 353.36 872.61 342.34Z" fill="#faa378" opacity="1" stroke-width="4" stroke="none"></path><path d="M501.84 375.51C489.63 368.81 486.28 376.59 491.79 386.64 495.25 392.9 498.05 398.63 498.59 399.71 498.59 399.82 498.59 399.92 498.49 399.82 484.87 397.44 430.75 385.66 431.72 400.9 431.72 401 431.72 401 431.61 401 423.08 401.76 420.16 410.29 423.4 414.72V414.83C414.33 420.77 422.11 429.09 422.75 429.74 422.75 429.74 422.75 429.74 422.75 429.85 422.65 430.6 421.13 440.11 434.96 446.59 448.68 452.97 480.55 461.07 489.52 464.42 503.56 469.5 516.1 479.65 536.62 497.48 536.62 497.48 536.73 497.48 536.84 497.48L578 427.58V427.47C547.53 405 519.98 385.45 501.84 375.51Z" fill="#faa378" opacity="1" stroke-width="4" stroke="none"></path><path d="M790.72 1123.1L743.29 1089.18" stroke="#a99ea7" stroke-width="4" stroke-linecap="round" stroke-linejoin="round" opacity="1" fill="none"></path><path d="M773 350.01C774.62 351.2 781 352.6 784.02 347.96" stroke="#000000" stroke-width="4" stroke-linecap="round" stroke-linejoin="round" opacity="1" fill="none"></path><path d="M818.59 347.09L827.56 342.56" stroke="#000000" stroke-width="4" stroke-linecap="round" stroke-linejoin="round" opacity="1" fill="none"></path><path d="M783.37 322.14C787.8 322.25 787.8 328.73 783.37 328.84 778.94 328.73 778.94 322.25 783.37 322.14Z" fill="#000000" opacity="1" stroke-width="4" stroke="none"></path><path d="M422.75 429.96C422.75 429.96 473.75 438.82 479.26 439.9" stroke="#1a1919" stroke-width="4" stroke-linecap="round" stroke-linejoin="round" opacity="1" fill="none"></path><path d="M423.4 415.05L483.69 423.8" stroke="#1a1919" stroke-width="4" stroke-linecap="round" stroke-linejoin="round" opacity="1" fill="none"></path><path d="M431.61 401.11L490.17 409.75" stroke="#1a1919" stroke-width="4" stroke-linecap="round" stroke-linejoin="round" opacity="1" fill="none"></path><path d="M907.4 1123.1L859.64 1088.97" stroke="#a99ea7" stroke-width="4" stroke-linecap="round" stroke-linejoin="round" opacity="1" fill="none"></path><path d="M527.98 446.49C522.58 444.33 509.29 435.14 498.49 399.49" stroke="#1a1919" stroke-width="4" stroke-linecap="round" stroke-linejoin="round" opacity="1" fill="none"></path><path d="M876.28 419.26C868.94 417.96 862.45 418.18 859.1 417.96 859 417.96 859 417.86 859 417.86 859.86 415.16 861.05 411.48 862.35 407.27 862.35 407.16 862.35 407.16 862.24 407.16H788.77C788.77 407.16 788.67 407.16 788.67 407.27L787.91 410.62 786.51 416.78C786.51 416.78 786.51 416.88 786.4 416.88 785.64 416.78 779.27 416.34 769.65 416.99 769.54 416.99 769.54 417.1 769.54 417.1L807.57 514.55C807.57 514.66 807.68 514.66 807.79 514.55L876.28 419.59C876.39 419.37 876.39 419.26 876.28 419.26Z" fill="#ffffff" opacity="1" stroke-width="4" stroke="none"></path><path d="M792.23 391.17C797.31 390.85 804.87 390.09 813.3 387.07" stroke="#000000" stroke-width="4" stroke-linecap="round" stroke-linejoin="round" opacity="1" fill="none"></path><path d="M930.95 878.08C924.25 845.78 923.92 810.34 921.98 774.37 918.85 717 911.82 658.23 869.48 608 869.48 608 869.48 608 869.37 608 868.07 607.78 831.45 601.3 798.93 601.84 775.05 602.16 752.8 609.29 751.61 609.62 751.61 609.62 751.61 609.62 751.5 609.73 750.64 612.43 711.75 727.59 725.57 874.95 727.3 892.78 730 913.3 732.81 934.8 732.81 934.8 732.81 934.91 732.92 934.91H945.86C945.96 934.91 945.96 934.8 945.96 934.8 940.56 911.03 934.51 891.15 930.95 878.08Z" fill="#a45c8c" opacity="1" stroke-width="4" stroke="none"></path><path d="M792.34 391.06C793.31 390.96 804.55 389.55 813.3 387.07 813.41 387.07 813.51 387.18 813.41 387.28L788.02 410.51 788.77 407.16 792.34 391.06C792.23 391.06 792.23 391.06 792.34 391.06Z" fill="#000000" opacity="0.2" stroke-width="4" stroke="none"></path><path d="M858.67 615.56L858.35 615.24C861.26 612.86 864.18 610.48 867.1 608 858.89 608.11 830.8 608.54 828.31 608.54 828.21 608.54 828.21 608.65 828.21 608.65L840.2 629.71C840.2 629.82 840.31 629.82 840.31 629.71 848.62 623.01 858.24 615.13 858.24 615.13L858.67 615.56Z" fill="#141414" opacity="0.2" stroke-width="4" stroke="none"></path><path d="M874.55 690.54L921.76 773.94C921.87 774.05 921.98 773.94 921.98 773.83 919.39 726.19 914.53 697.67 904.91 670.33 904.91 670.22 904.8 670.22 904.8 670.22 904.15 670.55 903.4 670.98 902.86 671.31L879.2 682.97C878.98 683.3 877.58 686.21 874.66 690.32 874.55 690.43 874.55 690.54 874.55 690.54Z" fill="#141414" opacity="0.2" stroke-width="4" stroke="none"></path><path d="M847.19 562.55L754.98 654.75 862.46 762.23 954.67 670.03 847.19 562.55Z" fill="#ffffff" opacity="1" stroke-width="4" stroke="none"></path><path d="M849.92 713.33C861.7 706.85 869.8 697.13 874.44 690.54 877.36 686.43 878.87 683.51 878.98 683.19L902.53 671.63C902.53 671.63 902.64 671.52 902.53 671.52L887.08 636.95 858.78 615.56 858.02 615.45C858.02 615.45 848.41 623.34 839.98 630.14 836.09 633.28 832.53 636.19 830.26 637.92 820.54 645.48 771.92 685.46 776.24 693.02 780.24 700.04 790.61 695.94 792.23 695.29 792.34 695.29 792.45 695.29 792.34 695.4 789.1 706.31 775.05 746.28 790.18 745.96 790.18 745.96 790.29 745.96 790.29 746.06 793.42 759.46 805.52 752.98 806.38 752.55H806.49C815.78 760.76 824.1 750.17 824.75 749.31H824.86C836.96 754.38 845.6 728.24 848.52 717.76 849.49 715.17 849.81 713.65 849.92 713.33Z" fill="#faa378" opacity="1" stroke-width="4" stroke="none"></path><path d="M928.03 449.94C912.04 429.85 891.51 422.07 876.5 419.26H876.39L807.9 514.33C807.9 514.44 807.79 514.44 807.68 514.33L769.65 416.78 769.54 416.67C756.04 417.64 736.7 420.99 717.69 431.15 689.38 446.27 646.49 476.41 644.76 477.71H644.66C643.14 476.52 612.03 452.54 578.11 427.58H578L536.84 497.48V497.59C625.97 576.67 635.69 582.83 734.22 526.86 734.32 526.86 734.32 526.86 734.32 526.97 735.08 530.54 749.67 600 751.61 609.51 751.72 610.16 828.1 608.43 828.1 608.43L866.67 607.89C866.77 607.89 866.77 608 866.77 608.11 863.97 610.37 861.16 612.75 858.46 615.02V615.13L864.51 622.69 902.53 671.63 904.69 670.12C914.09 665.04 925.11 658.45 935.81 650.99 959.9 634.25 982.91 612.64 984.96 590.06 989.29 541.56 940.67 464.85 928.03 449.94ZM890 549.55C890 549.44 890.11 549.44 890.22 549.55 891.51 552.25 903.18 575.69 903.94 577.1V577.21C903.07 577.86 893.46 585.96 881.14 596.33 877.69 599.14 874.12 602.16 870.45 605.3L890 549.55Z" fill="#402f5e" opacity="1" stroke-width="4" stroke="none"></path><path d="M890.11 549.33L875.42 518.33C875.42 518.22 875.31 518.22 875.2 518.33L828.21 608.43C828.21 608.54 828.21 608.54 828.31 608.54L867.1 608C867.1 608 867.1 608 867.21 608 868.29 607.13 869.37 606.27 870.34 605.4L890.11 549.33Z" fill="#000000" opacity="0.2" stroke-width="4" stroke="none"></path><path d="M751.61 609.73L861.59 608" stroke="#000000" stroke-width="4" stroke-linecap="round" stroke-linejoin="round" opacity="1" fill="none"></path><path d="M807.79 514.55V608" stroke="#000000" stroke-width="4" stroke-linecap="round" stroke-linejoin="round" opacity="1" fill="none"></path><path d="M793.74 543.72H822.16" stroke="#000000" stroke-width="4" stroke-linecap="round" stroke-linejoin="round" opacity="1" fill="none"></path><path d="M793.74 565.11H822.16" stroke="#000000" stroke-width="4" stroke-linecap="round" stroke-linejoin="round" opacity="1" fill="none"></path><path d="M754.96 654.78L847.22 562.51 881.14 596.44 781.64 682 754.96 654.78Z" fill="#ffffff" opacity="1" stroke-width="4" stroke="none"></path><path d="M890.22 549.55L875.2 518.33" stroke="#000000" stroke-width="4" stroke-linecap="round" stroke-linejoin="round" opacity="1" fill="none"></path><path d="M825.07 748.98C826.15 743.58 828.31 727.37 833.72 712.25" stroke="#000000" stroke-width="4" stroke-linecap="round" stroke-linejoin="round" opacity="1" fill="none"></path><path d="M806.71 752.22C806.71 752.22 811.03 725.21 818.59 706.85" stroke="#000000" stroke-width="4" stroke-linecap="round" stroke-linejoin="round" opacity="1" fill="none"></path><path d="M790.5 745.85C798.06 715.6 803.47 700.37 803.47 700.37" stroke="#000000" stroke-width="4" stroke-linecap="round" stroke-linejoin="round" opacity="1" fill="none"></path><path d="M792.45 695.07C793.96 690.86 795.8 686.11 798.39 682.43" stroke="#000000" stroke-width="4" stroke-linecap="round" stroke-linejoin="round" opacity="1" fill="none"></path><path d="M730.33 907.58H937.86" stroke="#141414" stroke-width="4" stroke-linecap="round" stroke-linejoin="round" opacity="1" fill="none"></path><path d="M644.55 477.82L660.11 467.23" stroke="#000000" stroke-width="4" stroke-linecap="round" stroke-linejoin="round" opacity="1" fill="none"></path><path d="M665.29 560.03C665.18 560.14 665.29 560.25 665.4 560.25 681.82 556.25 736.81 525.68 734.22 526.97 734.22 526.97 729.14 498.77 728.6 496.07 728.6 495.97 728.49 495.97 728.38 496.07 695.43 534.43 668.64 557.22 665.29 560.03Z" fill="#000000" opacity="0.2" stroke-width="4" stroke="none"></path><path d="M734.32 527.08L728.49 496.07" stroke="#000000" stroke-width="4" stroke-linecap="round" stroke-linejoin="round" opacity="1" fill="none"></path><path d="M954.71 409.21C958.93 359.63 920.25 336.94 880.49 346.45 880.39 346.45 880.39 346.45 880.39 346.34 880.71 344.72 881.04 343.21 881.25 342.13 884.06 322.46 883.09 293.51 853.16 278.6 835.34 269.74 814.49 270.93 803.36 275.36 794.72 278.28 787.8 285.62 782.4 293.73V293.83C784.67 300.42 790.39 311.01 797.96 320.63 797.96 320.63 798.06 320.73 798.06 320.63L815.89 308.09C816 307.99 816.11 308.09 816 308.2L803.36 327.11V327.22C805.09 329.16 806.71 330.78 808.65 332.51H808.76C826.05 317.49 840.31 322.35 845.38 329.38 859.43 348.82 829.29 363.84 822.7 367.19 822.7 367.19 822.7 367.19 822.7 367.3 821.29 385.12 823.88 399.17 830.15 409 835.12 416.88 843.98 421.53 853.38 421.42 866.56 421.21 891.08 421.96 902.53 428.77 927.17 441.08 953.96 489.59 966.17 515.74 966.17 515.74 966.27 515.84 966.27 515.74 1007.54 496.61 1014.03 424.45 954.71 409.32 954.71 409.32 954.71 409.32 954.71 409.21Z" fill="#000000" opacity="1" stroke-width="4" stroke="none"></path><path d="M818.7 360.49L813.3 374.86C812.33 377.45 813.62 380.26 816.21 381.23 817.4 382.21 830.69 379.94 832.31 379.94 835.88 379.61 837.82 375.29 835.88 372.27L827.34 359.52C825.29 356.28 820 356.82 818.7 360.49Z" fill="#ffffff" opacity="1" stroke-width="4" stroke="none"></path></g><g><path d="M323.45 883.93L361.7 896.61 324.36 904.18 327.53 934.19 307.1 909.3 282.88 930.96 296.36 897.96 260.06 894.42 296.3 885.69 281.6 857.2 309.35 877.52 327.41 849.7 323.45 883.93Z" fill="#ffffff" opacity="1" stroke-width="4" stroke="none"></path></g></svg>